<?xml version="1.0" encoding="UTF-8" standalone="no"?>
<!-- Created with Inkscape (http://www.inkscape.org/) -->

<svg
   xmlns:dc="http://purl.org/dc/elements/1.1/"
   xmlns:cc="http://creativecommons.org/ns#"
   xmlns:rdf="http://www.w3.org/1999/02/22-rdf-syntax-ns#"
   xmlns:svg="http://www.w3.org/2000/svg"
   xmlns="http://www.w3.org/2000/svg"
   xmlns:sodipodi="http://sodipodi.sourceforge.net/DTD/sodipodi-0.dtd"
   xmlns:inkscape="http://www.inkscape.org/namespaces/inkscape"
   width="80"
   height="80"
   viewBox="0 0 21.166666 21.166666"
   version="1.1"
   id="svg8"
   inkscape:version="0.92.4 (5da689c313, 2019-01-14)"
   sodipodi:docname="logo.svg">
  <defs
     id="defs2">
    <filter
       inkscape:collect="always"
       style="color-interpolation-filters:sRGB"
       id="filter1017"
       x="-0.023677122"
       width="1.0473542"
       y="-0.024331806"
       height="1.0486636">
      <feGaussianBlur
         inkscape:collect="always"
         stdDeviation="0.16714449"
         id="feGaussianBlur1019" />
    </filter>
    <filter
       inkscape:collect="always"
       style="color-interpolation-filters:sRGB"
       id="filter1040"
       x="-0.023514545"
       width="1.0470291"
       y="-0.024505922"
       height="1.0490118">
      <feGaussianBlur
         inkscape:collect="always"
         stdDeviation="0.18934065"
         id="feGaussianBlur1042" />
    </filter>
    <filter
       inkscape:collect="always"
       style="color-interpolation-filters:sRGB"
       id="filter1071"
       x="-0.026562413"
       width="1.0531248"
       y="-0.021888471"
       height="1.0437769">
      <feGaussianBlur
         inkscape:collect="always"
         stdDeviation="0.12130883"
         id="feGaussianBlur1073" />
    </filter>
  </defs>
  <sodipodi:namedview
     id="base"
     pagecolor="#ffffff"
     bordercolor="#666666"
     borderopacity="1.0"
     inkscape:pageopacity="0.0"
     inkscape:pageshadow="2"
     inkscape:zoom="7.9195959"
     inkscape:cx="50.314426"
     inkscape:cy="50.821884"
     inkscape:document-units="mm"
     inkscape:current-layer="layer1"
     showgrid="false"
     units="px"
     inkscape:window-width="1920"
     inkscape:window-height="1017"
     inkscape:window-x="-8"
     inkscape:window-y="-8"
     inkscape:window-maximized="1" />
  <metadata
     id="metadata5">
    <rdf:RDF>
      <cc:Work
         rdf:about="">
        <dc:format>image/svg+xml</dc:format>
        <dc:type
           rdf:resource="http://purl.org/dc/dcmitype/StillImage" />
        <dc:title></dc:title>
      </cc:Work>
    </rdf:RDF>
  </metadata>
  <g
     inkscape:label="Layer 1"
     inkscape:groupmode="layer"
     id="layer1"
     transform="translate(0,-275.83334)">
    <path
       style="fill:#000000;stroke:none;stroke-width:0.03536786"
       d="M 8.4053737,292.10296 C 7.011676,290.71807 5.8304512,289.52129 5.780432,289.44346 5.6282949,289.20673 5.5423069,288.9056 5.5203896,288.53278 l -0.020271,-0.34483 h 0.1466136 c 0.080639,0 0.1466147,-0.009 0.1466147,-0.0189 0,-0.0104 -0.041016,-0.0998 -0.091147,-0.19873 -0.1122862,-0.22159 -0.1903677,-0.5769 -0.1911816,-0.86998 l -6.517e-4,-0.22104 h 0.1393841 c 0.076662,0 0.1480719,-0.014 0.1586895,-0.0312 0.010615,-0.0172 -0.034352,-0.13418 -0.099933,-0.25999 -0.1326742,-0.25454 -0.2082974,-0.61552 -0.1913768,-0.9135 l 0.010919,-0.19231 0.8860834,-0.009 0.8860849,-0.009 0.042323,-0.2049 c 0.023276,-0.1127 0.042321,-0.22358 0.042321,-0.2464 0,-0.0305 -0.2510538,-0.044 -0.9460895,-0.0509 l -0.9460912,-0.009 -0.00975,-0.55704 c -0.00536,-0.30637 -0.00163,-0.55704 0.00832,-0.55704 0.00993,0 0.097867,0.0491 0.1954217,0.10913 l 0.1773704,0.10914 v 0.26384 0.26385 l 0.2313146,-0.0104 0.2313153,-0.0104 0.1252984,-0.30063 c 0.1958681,-0.47015 0.233714,-0.39634 -0.4004786,-0.78101 l -0.5587577,-0.33893 -0.00944,-0.92735 -0.00944,-0.92736 0.1862719,0.0107 0.1862729,0.0107 0.0096,0.81346 0.0096,0.81345 0.3258446,0.2009 c 0.2268646,0.13987 0.3339065,0.18821 0.3523871,0.15915 0.014598,-0.0229 0.026788,-0.48339 0.027085,-1.02319 l 5.43e-4,-0.98146 h 0.1768397 0.1768396 v 0.97053 c 0,0.53379 0.013208,0.97869 0.029344,0.98867 0.01614,0.01 0.086923,-0.0567 0.1572938,-0.14823 0.07037,-0.0915 0.2242777,-0.26953 0.342015,-0.39561 l 0.2140687,-0.23067 v -0.59307 -0.59304 H 7.844699 8.0215386 v 0.42441 c 0,0.29552 0.01231,0.42441 0.040549,0.42441 0.022303,0 0.1217756,-0.0532 0.2210496,-0.11811 0.099275,-0.065 0.2474477,-0.15503 0.3292722,-0.20016 0.1470154,-0.0811 0.1488952,-0.0846 0.1591562,-0.29747 l 0.010384,-0.2154 0.1856821,-0.0107 0.185681,-0.0107 v 0.12563 c 0,0.0691 0.011937,0.12543 0.026528,0.12518 0.014591,-2.6e-4 0.1299762,-0.0329 0.2564158,-0.0725 0.1264407,-0.0396 0.2895748,-0.0855 0.3625206,-0.10189 l 0.1326296,-0.0298 v 0.18533 0.18531 l -0.2741006,0.0789 c -0.6558492,0.18887 -1.3611176,0.61041 -1.8668293,1.11582 -0.44365,0.44339 -0.9339017,1.19982 -1.0264078,1.5837 l -0.023439,0.0973 0.4017227,-1.4e-4 0.4017235,-1.3e-4 0.1224986,-0.23688 c 0.5571002,-1.07731 1.6736803,-1.83439 2.9102952,-1.97328 l 0.203365,-0.0228 v -0.52797 -0.52797 h 0.17684 0.17684 v 0.52835 0.52835 l 0.167997,0.0214 c 0.908839,0.11588 1.682456,0.4813 2.276429,1.07528 0.255418,0.25541 0.585781,0.7132 0.723953,1.00318 l 0.0632,0.13263 h 0.404013 0.404014 l -0.02338,-0.0973 c -0.0434,-0.18052 -0.312509,-0.68663 -0.517862,-0.9739 -0.604932,-0.84625 -1.481026,-1.46995 -2.446169,-1.74143 l -0.203364,-0.0572 v -0.18977 -0.18975 l 0.240286,0.0666 c 0.132157,0.0366 0.284392,0.0834 0.338297,0.10385 0.166096,0.0632 0.199509,0.0487 0.199509,-0.0865 v -0.12378 h 0.175152 0.175151 l 0.01054,0.21686 0.01054,0.21687 0.335996,0.20566 c 0.184796,0.11311 0.347426,0.20651 0.361398,0.20754 0.01397,0.001 0.02989,-0.18511 0.03537,-0.41367 l 0.01,-0.41558 0.185682,-0.0107 0.185681,-0.0107 v 0.61315 0.61316 l 0.196473,0.19331 c 0.108059,0.10633 0.261058,0.2767 0.339996,0.37861 0.07894,0.10191 0.157641,0.17657 0.174891,0.16591 0.01725,-0.0106 0.03136,-0.45612 0.03136,-0.98991 v -0.97053 h 0.17684 0.176838 v 1.00798 c 0,0.75303 0.0106,1.00799 0.04189,1.00799 0.02304,0 0.182194,-0.0831 0.353679,-0.18459 l 0.311789,-0.18458 v -0.82525 -0.82525 l 0.185681,0.0107 0.18568,0.0107 0.0094,0.90639 0.0094,0.90639 -0.580011,0.35836 -0.580013,0.35837 0.131683,0.30912 c 0.07243,0.17001 0.14168,0.33697 0.153899,0.37101 0.01808,0.0504 0.06526,0.0619 0.253218,0.0619 h 0.231001 v -0.26222 -0.26222 l 0.177372,-0.10914 c 0.09755,-0.06 0.185493,-0.10914 0.19542,-0.10914 0.0099,0 0.01367,0.25067 0.0083,0.55704 l -0.0097,0.55705 -0.946088,0.009 c -0.695036,0.007 -0.94609,0.0204 -0.94609,0.0509 0,0.0228 0.01904,0.13371 0.04232,0.24641 l 0.04232,0.2049 0.886085,0.009 0.886085,0.009 0.01104,0.1537 c 0.01894,0.26362 -0.0595,0.64559 -0.188848,0.91969 -0.06747,0.14296 -0.113802,0.27426 -0.102971,0.29178 0.01083,0.0175 0.0848,0.0319 0.164372,0.0319 h 0.144681 l -0.02214,0.31185 c -0.02299,0.32391 -0.124227,0.71659 -0.216068,0.83811 -0.08928,0.11813 -0.06728,0.15865 0.08614,0.15865 h 0.14147 l -2.67e-4,0.18568 c -5.43e-4,0.32978 -0.06845,0.63823 -0.200708,0.91072 -0.124143,0.25579 -0.219623,0.3556 -2.672812,2.79406 -1.399239,1.39085 -2.554528,2.5319 -2.567308,2.53567 -0.01278,0.004 -1.1635383,-1.12623 -2.5572357,-2.51112 z m 2.7211563,1.83977 0.148835,-0.15165 v -1.51064 -1.51064 h -0.318311 -0.31831 v 1.51064 1.51064 l 0.148835,0.15165 c 0.08186,0.0834 0.158124,0.15165 0.169475,0.15165 0.01135,0 0.08762,-0.0682 0.169476,-0.15165 z m -0.841466,-1.88408 c 0,-1.27621 -6.88e-4,-1.28885 -0.07258,-1.28885 -0.06534,0 -0.07152,-0.0185 -0.06189,-0.18568 l 0.0107,-0.18568 0.786935,-0.01 0.786935,-0.01 v 0.18004 c 0,0.10823 -0.02,0.20004 -0.05014,0.23018 -0.04126,0.0413 -0.05039,0.26467 -0.05156,1.26221 -7.97e-4,0.68572 0.01282,1.23497 0.03137,1.26479 0.02624,0.0422 0.09299,-0.007 0.334497,-0.24713 l 0.301713,-0.29984 v -1.14946 -1.14945 l -0.273273,-0.27489 -0.27327,-0.27488 h -0.795775 -0.795775 l -0.2572484,0.25553 -0.2572496,0.25554 v 1.18497 1.18497 l 0.2892218,0.29073 c 0.1590702,0.1599 0.3023112,0.28264 0.3183102,0.27275 0.016,-0.01 0.02909,-0.59796 0.02909,-1.30682 z m -1.0256671,-0.73149 v -1.03419 l 0.7156978,-0.71634 0.7156973,-0.71634 -0.114657,-0.11465 -0.114656,-0.11466 -0.9193526,0.91884 -0.9193511,0.91885 v 0.66589 0.66589 l 0.2917848,0.27961 c 0.160482,0.15379 0.3037213,0.28 0.3183106,0.28046 0.014591,2.9e-4 0.026528,-0.46455 0.026528,-1.03336 z m 4.0036351,0.486 c 0.01497,-0.0195 0.02746,-0.33022 0.02776,-0.69059 l 5.43e-4,-0.65521 -0.920016,-0.91752 -0.920018,-0.91753 -0.11399,0.11399 -0.113992,0.11399 0.715697,0.71634 0.715698,0.71634 v 1.01061 c 0,0.55584 0.01108,1.0217 0.02463,1.03525 0.02018,0.0202 0.487483,-0.40066 0.583688,-0.52567 z m -4.993936,-3.2008 v -2.75869 H 7.9507854 7.6324748 v 2.48381 2.48381 l 0.2732715,0.27488 c 0.1502989,0.15119 0.2935385,0.27489 0.318311,0.27489 0.03609,0 0.045039,-0.54822 0.045039,-2.7587 z m 5.737654,2.48542 0.274883,-0.27327 v -2.48542 -2.48542 h -0.318311 -0.318311 v 2.75869 c 0,2.15687 0.0095,2.7587 0.04343,2.7587 0.02389,0 0.167125,-0.12298 0.318311,-0.27328 z m -6.763321,-1.0968 V 289.6212 L 6.7221946,289.0991 C 6.2088417,288.58489 6.1986133,288.57699 6.0456059,288.57699 H 5.8902501 l 0.017368,0.15409 c 0.037439,0.33216 0.173259,0.5348 0.7436128,1.10946 0.2949003,0.29711 0.5487856,0.54022 0.5641907,0.54022 0.015405,0 0.028008,-0.1709 0.028007,-0.37978 z m 8.022141,-0.16428 c 0.569895,-0.57738 0.689573,-0.75535 0.736069,-1.09457 l 0.02263,-0.16514 h -0.155561 c -0.153275,0 -0.163232,0.008 -0.676796,0.52211 l -0.521234,0.5221 v 0.37978 c 0,0.20888 0.01303,0.37978 0.02895,0.37978 0.01592,0 0.270596,-0.24483 0.565943,-0.54406 z m -5.17399,-1.57693 c -0.05648,-0.059 -0.1194517,-0.10719 -0.1399359,-0.10719 -0.020485,0 -0.3278591,0.2903 -0.6830557,0.64511 l -0.6458131,0.6451 v 0.19783 c 0,0.10881 0.011256,0.20908 0.025,0.22283 0.013751,0.0138 0.3673381,-0.31733 0.7857493,-0.73574 l 0.7607464,-0.76075 z m 3.199753,1.38536 v -0.20092 l -0.645104,-0.64582 c -0.35481,-0.35519 -0.660312,-0.64581 -0.678898,-0.64581 -0.04612,0 -0.231849,0.18103 -0.233576,0.22767 -0.0019,0.0511 1.497636,1.50264 1.531052,1.48211 0.01459,-0.009 0.02653,-0.10672 0.02653,-0.21723 z m -1.98999,-0.10665 c 0.03053,-0.0194 -0.01481,-0.0855 -0.150709,-0.21969 l -0.194372,-0.19196 -0.18095,0.18095 c -0.101449,0.10145 -0.170284,0.19821 -0.156672,0.22023 0.02789,0.0451 0.613989,0.0541 0.682703,0.0104 z m -4.057914,-0.73159 v -0.2299 H 7.013538 c -0.1264407,0 -0.2298924,0.0115 -0.2298924,0.0255 0,0.0348 0.3975677,0.43428 0.4321504,0.43428 0.015199,0 0.027635,-0.10345 0.027635,-0.22989 z m 7.682642,0.0276 c 0.112414,-0.11124 0.20439,-0.21469 0.20439,-0.22989 0,-0.0152 -0.10345,-0.0276 -0.229891,-0.0276 h -0.22989 v 0.22989 c 0,0.12644 0.01147,0.22989 0.0255,0.22989 0.01403,0 0.117477,-0.091 0.229892,-0.20226 z m -6.0983828,-0.1263 0.1489043,-0.15173 -0.1525339,-0.1497 c -0.083892,-0.0823 -0.1635016,-0.13873 -0.1769077,-0.12532 -0.03408,0.0341 -0.030666,0.57847 0.00362,0.57847 0.015405,0 0.095011,-0.0683 0.1769095,-0.15172 z m 4.4636448,-0.16866 c 0,-0.33292 -0.03304,-0.35263 -0.228468,-0.13631 -0.128087,0.14178 -0.129356,0.14599 -0.06601,0.21906 0.111973,0.12916 0.239986,0.23178 0.267739,0.21463 0.01471,-0.009 0.02674,-0.14291 0.02674,-0.29738 z m -1.969304,-0.28389 c 0.18831,-0.17673 0.342383,-0.34053 0.342383,-0.36399 0,-0.0235 -0.07162,-0.11296 -0.159156,-0.19887 l -0.159155,-0.15619 2.7e-5,-0.58505 c 2.8e-5,-0.57195 0.0023,-0.5898 0.101909,-0.79726 0.126379,-0.26323 0.312004,-0.44413 0.587737,-0.57277 l 0.212207,-0.099 0.998996,-0.0122 0.998998,-0.0122 -0.02298,-0.094 c -0.01264,-0.0517 -0.04112,-0.15766 -0.0633,-0.23547 l -0.04033,-0.14146 H 10.957054 7.7947407 l -0.04033,0.14147 c -0.022179,0.0778 -0.050669,0.18377 -0.063304,0.23547 l -0.022976,0.094 0.9989963,0.0122 0.9989975,0.0122 0.2122072,0.099 c 0.2757333,0.12864 0.4613583,0.30954 0.5877373,0.57278 0.09969,0.20764 0.10188,0.22486 0.101907,0.80161 l 2.9e-5,0.58941 -0.159156,0.14009 c -0.08754,0.077 -0.159155,0.15372 -0.159155,0.17037 0,0.0336 0.676111,0.72121 0.709147,0.72121 0.01145,0 0.174875,-0.1446 0.363185,-0.32134 z m -1.8448692,-0.17356 0.2241293,-0.21195 -0.2209468,-0.22095 -0.2209454,-0.22095 -0.2203172,0.22032 -0.2203161,0.22032 0.2103669,0.21258 c 0.1157029,0.11692 0.2134128,0.21259 0.2171344,0.21259 0.00371,0 0.1076233,-0.0954 0.2308949,-0.21196 z m 3.5216492,-0.11441 0.292524,-0.29101 v -0.9115 -0.9115 l -0.486308,7.2e-4 c -0.546679,7.3e-4 -0.679952,0.0382 -0.883604,0.24757 -0.129611,0.13324 -0.233573,0.3734 -0.215859,0.49865 0.0119,0.0841 0.0124,0.0842 0.568945,0.0939 l 0.557044,0.01 v 0.17594 0.17594 h -0.565886 -0.565886 v 0.14982 c 0,0.14471 0.01537,0.16522 0.45043,0.60126 0.247736,0.24828 0.4742,0.45143 0.503253,0.45143 0.02905,0 0.184459,-0.13096 0.345347,-0.291 z m -5.8614838,0.19423 c 0,-0.0143 -0.2026935,-0.22918 -0.4504301,-0.47746 L 6.2364657,287.23303 H 6.0630319 5.8895966 l 0.021426,0.18091 c 0.026231,0.22147 0.1387067,0.46148 0.2998597,0.63986 l 0.1212116,0.13417 H 6.73471 c 0.2214378,0 0.4026152,-0.0117 0.4026152,-0.026 z m 8.5606238,-0.10498 c 0.145467,-0.16568 0.274454,-0.44549 0.30369,-0.65879 l 0.02263,-0.16513 h -0.172312 -0.172313 l -0.451433,0.45044 c -0.248287,0.24773 -0.451431,0.46259 -0.451431,0.47746 0,0.0149 0.18138,0.027 0.403066,0.027 h 0.403067 z m -8.45452,-0.6117 v -0.21221 H 7.0312214 c -0.1167145,0 -0.2122068,0.0114 -0.2122068,0.0254 0,0.0348 0.3621104,0.399 0.3966796,0.399 0.015253,0 0.027733,-0.0955 0.027733,-0.2122 z m 7.664872,0.0277 c 0.102736,-0.10146 0.186792,-0.19695 0.186792,-0.21221 0,-0.0152 -0.09549,-0.0277 -0.212206,-0.0277 H 14.67068 v 0.21221 c 0,0.11671 0.01143,0.2122 0.02541,0.2122 0.01398,0 0.109471,-0.083 0.212207,-0.18447 z m -4.810601,7.2e-4 0.116629,-0.11304 v -0.41747 c 0,-0.22962 -0.01227,-0.41748 -0.02726,-0.41748 -0.015,0 -0.169755,0.14315 -0.3439134,0.31812 l -0.3166506,0.31812 0.2101765,0.2124 c 0.1155982,0.11682 0.2178762,0.21239 0.2272856,0.21239 0.00941,0 0.069591,-0.0509 0.1337369,-0.11304 z m -1.2450337,-0.1699 0.1381441,-0.14147 -0.1381441,-0.14148 c -0.2032388,-0.20813 -0.229891,-0.19173 -0.229891,0.14148 0,0.3332 0.026651,0.3496 0.229891,0.14147 z m -1.617108,-0.94609 0.00981,-0.50399 H 6.5674822 5.8895941 l 0.020445,0.17261 c 0.027498,0.23218 0.1420605,0.46482 0.334052,0.67837 l 0.1590143,0.17685 0.4113186,-0.01 0.41132,-0.01 z m 2.4046755,0.15855 c 0.1990372,-0.19972 0.3617802,-0.37877 0.3616462,-0.39789 -2.67e-4,-0.0427 -0.1940809,-0.17644 -0.329213,-0.22723 -0.054761,-0.0206 -0.3133875,-0.0374 -0.5747282,-0.0374 H 8.6227753 v 0.2203 0.22032 l 0.2910042,0.29252 c 0.1600512,0.16089 0.3075551,0.29252 0.3277841,0.29252 0.020228,0 0.1996313,-0.1634 0.3986702,-0.36312 z m 6.0194102,0.20132 c 0.174659,-0.18948 0.310133,-0.46627 0.341995,-0.69873 l 0.02263,-0.16513 h -0.676797 -0.676795 v 0.48925 c 0,0.26909 0.01061,0.49987 0.02358,0.51284 0.01297,0.013 0.201928,0.0236 0.41991,0.0236 h 0.39633 z M 10.3558,284.55061 c 0,-0.0164 -0.3609057,-0.25015 -0.8020133,-0.51947 l -0.8020135,-0.48968 -0.2501798,0.26682 c -0.1375995,0.14675 -0.3011337,0.35266 -0.3634094,0.45758 -0.2070904,0.3489 -0.3194511,0.31456 1.0290087,0.31456 0.6537345,0 1.1886073,-0.0134 1.1886073,-0.0298 z m 3.572154,0.0104 c 0,-0.10306 -0.37847,-0.63071 -0.626629,-0.87364 l -0.171653,-0.16804 -0.794525,0.49591 c -0.436988,0.27275 -0.799828,0.5115 -0.806312,0.53056 -0.0075,0.0222 0.422275,0.0346 1.193665,0.0346 0.663,0 1.205454,-0.009 1.205454,-0.0195 z m -3.14774,-1.04176 v -0.7781 h -0.152421 c -0.194387,0 -0.6694839,0.1198 -0.9754192,0.24596 -0.2836758,0.11697 -0.5434025,0.27538 -0.5278802,0.32196 0.014667,0.044 1.5539634,0.98779 1.6115114,0.98806 0.03403,1.3e-4 0.04421,-0.17887 0.04421,-0.77788 z m 1.270813,0.23605 c 0.377984,-0.23682 0.693401,-0.44975 0.700928,-0.47318 0.01833,-0.0571 -0.46579,-0.29715 -0.832606,-0.41287 -0.161296,-0.0509 -0.404007,-0.1028 -0.53936,-0.11538 l -0.246095,-0.0229 v 0.7596 c 0,0.41777 0.01019,0.76978 0.02265,0.78224 0.02672,0.0267 0.01467,0.0337 0.894488,-0.51754 z"
       id="path826"
       inkscape:connector-curvature="0" />
    <ellipse
       style="fill:none;fill-opacity:1;stroke:#008000;stroke-width:0.403225;stroke-linecap:round;stroke-linejoin:round;stroke-miterlimit:4;stroke-dasharray:none;stroke-dashoffset:90;stroke-opacity:1"
       id="path828"
       cx="10.903314"
       cy="286.92621"
       rx="8.2886925"
       ry="8.058795" />
    <path
       style="fill:#008000;fill-opacity:1;stroke:#000000;stroke-width:0.03784225;stroke-linecap:round;stroke-linejoin:round;stroke-miterlimit:4;stroke-dasharray:none;stroke-dashoffset:90;stroke-opacity:1"
       d="m 10.218636,296.17192 c -0.5293513,-0.0499 -0.6877358,-0.0691 -1.0058202,-0.12202 -1.6700862,-0.27806 -3.3018825,-1.01726 -4.5995894,-2.08361 -1.9077752,-1.56766 -3.0894882,-3.74624 -3.3491733,-6.17448 -0.040712,-0.38068 -0.04047,-1.39734 4.172e-4,-1.76308 0.125051,-1.11857 0.3996992,-2.07263 0.8781785,-3.05059 0.3243838,-0.66299 0.6706371,-1.20659 1.1353971,-1.78249 0.3049493,-0.37787 1.0563842,-1.12266 1.4243303,-1.41174 1.5283635,-1.20075 3.2453515,-1.8948 5.2037042,-2.10348 0.4969536,-0.053 1.4969746,-0.0534 1.9878476,-7.5e-4 2.280987,0.24435 4.329401,1.19219 5.902978,2.73145 1.514672,1.48164 2.438319,3.33828 2.714922,5.45732 0.05561,0.4261 0.06354,1.58307 0.01359,1.98502 -0.227111,1.82754 -0.875875,3.37217 -2.002008,4.76655 -0.331253,0.41015 -1.045357,1.11603 -1.453578,1.43683 -1.551995,1.2196 -3.381258,1.93765 -5.363437,2.10532 -0.273126,0.0231 -1.276193,0.0297 -1.48776,0.009 z m 1.700297,-0.42783 c 1.171884,-0.13802 2.192649,-0.43396 3.200559,-0.92788 2.199608,-1.07793 3.844373,-2.93214 4.601379,-5.18733 0.433647,-1.29188 0.550769,-2.6338 0.348402,-3.99182 -0.426705,-2.86349 -2.310423,-5.36669 -5.012292,-6.66066 -1.069468,-0.51219 -2.140914,-0.80299 -3.368831,-0.91434 -0.419865,-0.038 -1.552958,-0.0167 -1.9696016,0.0371 -1.6355336,0.21138 -3.2018093,0.83169 -4.4697349,1.77022 -1.4727864,1.09016 -2.5540258,2.54724 -3.1442118,4.23713 -0.3244838,0.9291 -0.4709645,1.80849 -0.4700936,2.82222 8.457e-4,0.9833 0.1410742,1.8272 0.4572425,2.75168 1.0626272,3.10712 3.8359251,5.41405 7.1832274,5.97528 0.3079948,0.0516 0.4949339,0.0746 1.006169,0.12332 0.193837,0.0185 1.403187,-0.007 1.637786,-0.035 z"
       id="path988"
       inkscape:connector-curvature="0" />
    <path
       style="fill:#008000;fill-opacity:1;stroke:#008000;stroke-width:0.02645833;stroke-linecap:round;stroke-linejoin:round;stroke-miterlimit:4;stroke-dasharray:none;stroke-dashoffset:90;stroke-opacity:1"
       d="m 10.408783,294.07068 c -1.1889937,-1.16199 -2.7694039,-2.73335 -3.6733297,-3.65229 -0.9407035,-0.95633 -0.9561372,-0.97313 -1.0263683,-1.11688 -0.1144176,-0.2342 -0.1654824,-0.48025 -0.1972711,-0.95053 l -0.00997,-0.14744 0.1375818,-0.008 c 0.07567,-0.004 0.1425832,-0.013 0.1486961,-0.0191 0.00611,-0.006 -0.025637,-0.0901 -0.070556,-0.18671 -0.127032,-0.27314 -0.1819302,-0.51192 -0.1927657,-0.83846 l -0.00894,-0.26942 0.1091678,-2.3e-4 c 0.1629137,-3.4e-4 0.1915065,-0.0114 0.1798364,-0.0698 -0.00529,-0.0264 -0.047502,-0.13119 -0.093809,-0.23278 -0.1370051,-0.30057 -0.190895,-0.54499 -0.1904217,-0.86368 1.437e-4,-0.097 0.00756,-0.18788 0.01647,-0.20199 0.013939,-0.022 0.1371365,-0.0269 0.8798644,-0.0342 0.5425536,-0.005 0.8695332,-0.0149 0.8794633,-0.0257 0.029431,-0.0319 0.097088,-0.43444 0.076472,-0.45506 -0.026535,-0.0265 -0.5854522,-0.0478 -1.2815209,-0.0488 l -0.5836409,-7.2e-4 -0.010601,-0.0642 c -0.015499,-0.0938 -0.013356,-1.03064 0.00235,-1.03064 0.00734,0 0.086236,0.0443 0.175336,0.0985 l 0.1620001,0.0985 0.00472,0.27103 0.00472,0.27102 0.2347635,-0.0121 c 0.1291203,-0.007 0.2399673,-0.017 0.2463275,-0.0231 0.026658,-0.0254 0.2535787,-0.60154 0.2535787,-0.64382 0,-0.11291 -0.065297,-0.16347 -0.7184501,-0.55634 -0.1928695,-0.11601 -0.354521,-0.21407 -0.3592252,-0.21792 -0.0047,-0.004 -0.0124,-0.4204 -0.017107,-0.92566 l -0.00855,-0.91865 0.1625063,0.007 c 0.089379,0.004 0.1702043,0.0139 0.1796126,0.0228 0.010684,0.0101 0.020318,0.31601 0.025659,0.81474 l 0.00855,0.79855 0.1539536,0.0964 c 0.2647534,0.16582 0.4589673,0.27196 0.4976372,0.27196 0.026785,0 0.039995,-0.0132 0.047142,-0.0471 0.00546,-0.0259 0.015315,-0.47618 0.021897,-1.00069 l 0.011969,-0.95366 h 0.1597076 0.159708 l 0.00148,0.56022 c 0.0017,0.63641 0.020188,1.36593 0.034993,1.38073 0.02345,0.0235 0.075192,-0.0223 0.2096663,-0.18522 0.078707,-0.0954 0.2284044,-0.2658 0.3326599,-0.3787 l 0.1895553,-0.20527 6.879e-4,-0.58588 6.879e-4,-0.58588 H 7.8358513 7.996026 l 0.012125,0.38061 c 0.013349,0.41905 0.018153,0.45758 0.057023,0.45758 0.014609,0 0.1042233,-0.0474 0.1991404,-0.10525 0.094917,-0.0579 0.2349662,-0.14235 0.3112198,-0.1877 0.076254,-0.0453 0.148708,-0.0946 0.1610095,-0.1094 0.01302,-0.0157 0.028581,-0.1069 0.037235,-0.21825 0.00818,-0.10522 0.020398,-0.19655 0.027158,-0.20296 0.00676,-0.006 0.087345,-0.0143 0.1790833,-0.0174 l 0.1667963,-0.006 -1.34e-5,0.11445 c -7.3e-6,0.063 0.00769,0.11922 0.017114,0.12504 0.00942,0.006 0.1499021,-0.028 0.3121835,-0.0751 0.1622819,-0.0471 0.3277726,-0.0929 0.3677578,-0.10184 l 0.0727,-0.0161 v 0.17707 0.17707 l -0.1240182,0.0356 c -0.9496593,0.27224 -1.7376048,0.78335 -2.3131777,1.50047 -0.2669609,0.33262 -0.5477943,0.77678 -0.6523796,1.0318 -0.045407,0.11072 -0.091547,0.26287 -0.091929,0.30315 -1.535e-4,0.0165 0.092429,0.0214 0.4064793,0.0214 h 0.4066822 l 0.080728,-0.16252 c 0.3080105,-0.62005 0.7920382,-1.14576 1.3981054,-1.5185 0.4348582,-0.26744 1.0148634,-0.4687 1.5138774,-0.5253 0.09408,-0.0107 0.188379,-0.023 0.209548,-0.0273 l 0.03849,-0.008 v -0.52141 -0.52141 h 0.162507 0.162506 v 0.52141 0.52141 l 0.03849,0.008 c 0.02117,0.004 0.130861,0.0208 0.24376,0.0368 0.829677,0.11735 1.598197,0.48978 2.15413,1.0439 0.263377,0.26252 0.590773,0.71333 0.735924,1.01333 l 0.06757,0.13966 h 0.407118 c 0.376398,0 0.407103,-0.002 0.406933,-0.0299 -9.78e-4,-0.15108 -0.324879,-0.7777 -0.577031,-1.11616 -0.445423,-0.5979 -1.000929,-1.06276 -1.664099,-1.39257 -0.248452,-0.12356 -0.617783,-0.26303 -0.871969,-0.32929 l -0.05987,-0.0156 -0.0049,-0.18462 c -0.0048,-0.18196 -0.0043,-0.18446 0.03181,-0.17298 0.02018,0.006 0.111107,0.0329 0.202071,0.0589 0.09096,0.026 0.232837,0.0692 0.315274,0.0961 0.188928,0.0615 0.206344,0.0539 0.213464,-0.093 l 0.0051,-0.10513 h 0.167769 0.16777 l 0.0109,0.11546 c 0.006,0.0635 0.01096,0.15875 0.01103,0.21164 l 9.6e-5,0.0962 0.32929,0.19802 c 0.181108,0.10891 0.342064,0.20282 0.357679,0.20869 0.04413,0.0166 0.05141,-0.0324 0.06384,-0.43007 0.0063,-0.20075 0.01888,-0.37218 0.02802,-0.38094 0.0091,-0.009 0.08781,-0.0185 0.174841,-0.0217 l 0.158241,-0.006 -9e-6,0.60646 -9e-6,0.60645 0.209999,0.21463 c 0.1155,0.11805 0.269629,0.28584 0.342511,0.37286 0.07288,0.087 0.142984,0.15824 0.155785,0.15824 0.0128,0 0.02806,-0.0212 0.03392,-0.0471 0.0059,-0.0259 0.01563,-0.46464 0.02173,-0.97503 l 0.01108,-0.928 h 0.157326 0.157326 l 0.01181,0.91944 c 0.01262,0.98304 0.01774,1.08195 0.05594,1.08195 0.03502,0 0.171199,-0.0709 0.437706,-0.22791 l 0.235207,-0.13856 v -0.82187 -0.82186 l 0.141125,0.005 c 0.07762,0.003 0.158443,0.009 0.179612,0.0133 l 0.03849,0.008 v 0.71547 c 0,0.3935 0.0048,0.79556 0.01073,0.89346 l 0.01073,0.17799 -0.5624,0.3469 c -0.30932,0.1908 -0.572995,0.3535 -0.585944,0.36157 -0.01878,0.0117 0.0072,0.0878 0.128294,0.37618 0.176976,0.42136 0.146327,0.39476 0.455036,0.39492 l 0.183454,1.1e-4 0.0047,-0.26858 0.0047,-0.26857 0.162507,-0.0989 c 0.08938,-0.0544 0.168279,-0.099 0.175335,-0.0992 0.0071,-1.8e-4 0.01283,0.246 0.01283,0.54707 v 0.54738 l -0.594431,7.3e-4 c -0.690149,10e-4 -1.265743,0.0222 -1.291242,0.0477 -0.02296,0.0229 0.05191,0.4246 0.08539,0.45808 0.01949,0.0195 0.158219,0.0237 0.779427,0.0238 0.415644,7e-5 0.808683,0.005 0.87342,0.0112 l 0.117703,0.0111 -0.0094,0.24963 c -0.01118,0.29746 -0.05692,0.50311 -0.1718,0.77245 -0.08998,0.21097 -0.124365,0.31935 -0.106865,0.33687 0.007,0.007 0.0775,0.0154 0.156694,0.0188 0.167181,0.007 0.15311,-0.0238 0.126267,0.27622 -0.03403,0.38037 -0.118469,0.71143 -0.222985,0.8743 -0.0845,0.13168 -0.05732,0.16397 0.140937,0.16745 l 0.09695,0.002 -0.0085,0.20099 c -0.01488,0.35371 -0.07354,0.61517 -0.195395,0.87088 -0.07344,0.15411 -0.150802,0.24944 -0.516323,0.63617 -0.33656,0.3561 -4.696106,4.68958 -4.717782,4.68958 -0.0066,0 -0.254181,-0.2367 -0.550209,-0.52601 z m 0.717747,-0.12795 0.158552,-0.1579 v -1.51031 -1.5103 l -0.32929,0.005 -0.329289,0.005 -0.0044,1.50325 -0.0044,1.50326 0.157198,0.1603 c 0.08646,0.0882 0.165259,0.1603 0.175109,0.1603 0.0099,0 0.08926,-0.0711 0.176461,-0.1579 z m -0.856905,-0.64182 c 0.0068,-0.0353 0.01297,-0.60298 0.01361,-1.26156 0.0012,-1.27365 0.0017,-1.26586 -0.08006,-1.27748 -0.03668,-0.005 -0.03876,-0.0138 -0.04337,-0.17803 l -0.0048,-0.17257 0.516533,-0.0113 c 0.284093,-0.006 0.639594,-0.0113 0.790003,-0.0113 h 0.27347 l -0.01097,0.15458 c -0.0076,0.1074 -0.02276,0.17918 -0.0496,0.23521 l -0.03863,0.0806 -0.0046,1.06912 c -0.0025,0.58802 0.0013,1.14225 0.0086,1.23163 0.01959,0.24169 0.02472,0.24017 0.381851,-0.11308 l 0.289903,-0.28675 v -1.14737 -1.14738 l -0.278161,-0.27777 -0.27816,-0.27778 H 10.954612 10.15411 l -0.2556009,0.2507 -0.2556008,0.2507 v 1.20086 1.20086 l 0.2818442,0.27614 c 0.1550145,0.15188 0.2932245,0.27614 0.3071325,0.27614 0.0156,0 0.03005,-0.0246 0.03774,-0.0641 z m -1.0068147,-1.998 0.00872,-1.01347 0.7074226,-0.70727 c 0.3890831,-0.389 0.7074231,-0.71522 0.7074231,-0.72494 0,-0.01 -0.04994,-0.0672 -0.110984,-0.12768 l -0.110985,-0.11 -0.921682,0.91447 -0.9216812,0.91448 -0.00224,0.67878 -0.00224,0.67879 0.1838889,0.17849 c 0.1011389,0.0982 0.2374698,0.2257 0.3029573,0.28341 0.1015767,0.0895 0.1213912,0.10077 0.1348809,0.0767 0.0089,-0.0159 0.019623,-0.4714 0.024529,-1.04173 z m 3.5911617,0.90889 c 0.08264,-0.0698 0.21184,-0.18928 0.287106,-0.26553 l 0.136848,-0.13862 0.0052,-0.68145 0.0052,-0.68146 -0.919695,-0.90951 -0.919695,-0.90951 -0.120275,0.12027 -0.120274,0.12028 0.712189,0.71413 0.71219,0.71414 0.0093,0.99215 c 0.0051,0.54568 0.01449,1.00561 0.02081,1.02208 0.0063,0.0165 0.01811,0.0299 0.02619,0.0299 0.0081,0 0.08231,-0.0571 0.164952,-0.12691 z m -4.5943781,-1.34003 c 0.00678,-0.26103 0.012889,-1.50031 0.013581,-2.75396 l 0.00127,-2.27937 H 7.9494284 7.6244154 v 2.49341 2.49342 l 0.2437598,0.2409 c 0.2818337,0.27853 0.3360621,0.32322 0.3614026,0.29788 0.010713,-0.0107 0.022563,-0.20501 0.030025,-0.49228 z m 5.7535341,0.22355 0.265495,-0.25043 v -2.50322 -2.50323 h -0.325012 -0.325013 l 0.0014,2.11686 c 0.0014,2.16075 0.01516,3.36597 0.03877,3.40418 0.02111,0.0341 0.05846,0.006 0.344354,-0.26416 z m -6.767799,-1.11372 0.006,-0.37129 -0.4506582,-0.44537 c -0.2478619,-0.24495 -0.4884248,-0.47589 -0.5345844,-0.51318 -0.081733,-0.066 -0.087919,-0.068 -0.2366574,-0.0738 l -0.1527305,-0.006 0.01134,0.10012 c 0.04578,0.40423 0.1452411,0.55295 0.833082,1.24565 0.382338,0.38503 0.4792634,0.47419 0.4966304,0.45682 0.015644,-0.0156 0.023229,-0.12367 0.027578,-0.39287 z m 7.95813,-0.0831 c 0.664923,-0.67253 0.760691,-0.81706 0.811653,-1.22493 l 0.01226,-0.0982 h -0.13547 c -0.119634,0 -0.144358,0.006 -0.211518,0.0487 -0.04183,0.0267 -0.290733,0.26183 -0.553123,0.5224 l -0.477074,0.47376 0.0084,0.36466 c 0.0046,0.20057 0.01394,0.3736 0.02069,0.38453 0.02007,0.0325 0.07728,-0.0189 0.524162,-0.47092 z m -6.4116786,-0.14668 c 0.1926567,-0.16869 1.3985206,-1.36575 1.3985206,-1.38831 0,-0.0316 -0.2062267,-0.21573 -0.2416044,-0.21573 -0.021727,0 -0.2672351,0.23154 -0.6830297,0.64417 l -0.6491139,0.64417 v 0.19262 c 0,0.17326 0.00815,0.24674 0.027382,0.24674 0.00364,0 0.070169,-0.0557 0.1478471,-0.12366 z m 4.4944366,-0.12724 2.87e-4,-0.20813 -0.602984,-0.5899 c -0.689704,-0.67473 -0.701304,-0.68516 -0.746177,-0.67092 -0.05085,0.0161 -0.20748,0.1813 -0.20748,0.21878 0,0.0394 0.30822,0.3577 0.838593,0.86598 0.535936,0.5136 0.684778,0.64401 0.702731,0.61567 0.0081,-0.0129 0.01491,-0.11701 0.01505,-0.23148 z m -1.982297,-0.0861 c 0.01588,-0.0159 0.0136,-0.031 -0.01019,-0.0673 -0.04812,-0.0734 -0.319001,-0.34841 -0.343227,-0.34841 -0.02555,0 -0.248218,0.23586 -0.311514,0.32997 -0.07047,0.10478 -0.04585,0.11224 0.358755,0.10872 0.196273,-0.002 0.292119,-0.009 0.306174,-0.023 z m -4.066823,-0.56537 c 0.00583,-0.0353 0.010688,-0.1392 0.010793,-0.23093 l 1.915e-4,-0.16679 -0.218101,2.9e-4 c -0.1199553,1e-4 -0.2289816,0.007 -0.2422805,0.0156 -0.01904,0.0121 -0.00282,0.0396 0.076322,0.12978 0.115889,0.132 0.3152491,0.31544 0.3433326,0.31592 0.010528,2e-4 0.023914,-0.0285 0.029746,-0.0638 z m 7.624143,-0.0706 c 0.196336,-0.18201 0.285507,-0.29144 0.253837,-0.31149 -0.01316,-0.008 -0.122066,-0.0153 -0.242021,-0.0154 l -0.218101,-2.9e-4 v 0.15157 c 0,0.19041 0.01598,0.31029 0.04137,0.31029 0.01079,0 0.085,-0.0606 0.164919,-0.1347 z m -6.0342314,-0.18936 0.1573224,-0.153 -0.102636,-0.10418 c -0.1408718,-0.143 -0.2284569,-0.20291 -0.2490549,-0.17035 -0.017219,0.0272 -0.021662,0.48102 -0.00531,0.54205 0.00567,0.0212 0.017523,0.0385 0.026332,0.0385 0.00881,0 0.086813,-0.0688 0.1733411,-0.153 z m 4.4490864,0.10884 c 0.0057,-0.0149 0.01038,-0.1347 0.01038,-0.26627 0,-0.35263 -0.02696,-0.37618 -0.209808,-0.18328 -0.158733,0.16747 -0.160407,0.18176 -0.03619,0.30899 0.09129,0.0935 0.18576,0.16739 0.21423,0.16756 0.0061,3e-5 0.01567,-0.0121 0.02138,-0.027 z m -2.123236,-0.40473 c 0.283296,-0.25593 0.508554,-0.49054 0.508554,-0.52965 0,-0.0214 -0.06051,-0.097 -0.153954,-0.1923 l -0.153953,-0.15699 v -0.54701 c 0,-0.60903 0.0068,-0.66125 0.111615,-0.86053 0.133436,-0.25363 0.287998,-0.39671 0.598282,-0.55384 l 0.17106,-0.0866 0.99828,-0.0131 c 0.549055,-0.007 1.002518,-0.0174 1.007695,-0.0226 0.0085,-0.009 -0.02161,-0.13267 -0.0926,-0.38173 l -0.0256,-0.0898 H 10.952251 7.7822577 l -0.052579,0.19244 c -0.028917,0.10584 -0.057572,0.21361 -0.063673,0.23948 l -0.011093,0.047 0.1002139,10e-4 c 0.055118,7.2e-4 0.5081907,0.007 1.006829,0.0138 l 0.9066158,0.0124 0.1784816,0.0891 c 0.300065,0.14982 0.447001,0.28498 0.579721,0.53323 0.119618,0.22375 0.122754,0.24599 0.122754,0.87071 v 0.5566 l -0.156418,0.14606 c -0.130944,0.12227 -0.154498,0.15211 -0.144626,0.18322 0.01662,0.0524 0.665083,0.70667 0.70036,0.70667 0.01597,0 0.107774,-0.0711 0.204018,-0.15809 z m -1.6596258,-0.34499 c 0.1105472,-0.10273 0.2009947,-0.19502 0.2009947,-0.2051 0,-0.0232 -0.4126223,-0.43792 -0.4357072,-0.43792 -0.00942,0 -0.1153792,0.098 -0.2354681,0.21786 l -0.2183433,0.21786 0.2171764,0.21766 c 0.1832393,0.18365 0.2213314,0.21444 0.2437646,0.19703 0.014623,-0.0113 0.1170356,-0.10467 0.2275829,-0.20739 z m 3.2392258,0.14271 c 0.03658,-0.0288 0.176191,-0.15645 0.31026,-0.28356 l 0.24376,-0.2311 v -0.93363 -0.93364 l -0.431926,0.0107 c -0.237559,0.006 -0.476732,0.0183 -0.531495,0.0276 -0.239072,0.0406 -0.440728,0.20059 -0.55424,0.43962 -0.07536,0.15867 -0.09551,0.30866 -0.0469,0.349 0.02372,0.0197 0.140519,0.0281 0.566294,0.0407 l 0.536409,0.0159 v 0.16816 0.16816 h -0.564499 -0.564497 v 0.13428 c 0,0.12279 0.0046,0.14072 0.05328,0.20955 0.106247,0.15009 0.853747,0.87069 0.903187,0.87069 0.0076,0 0.04379,-0.0236 0.08037,-0.0525 z m -5.6006385,-0.0468 c 0.012965,-0.013 -0.1149665,-0.15283 -0.4401811,-0.48123 l -0.458458,-0.46296 h -0.1784703 -0.17847 l 0.012223,0.10692 c 0.036648,0.32058 0.149018,0.56026 0.3737729,0.79724 l 0.070672,0.0745 0.390318,-0.008 c 0.2432559,-0.005 0.3972043,-0.015 0.4085945,-0.0264 z m 8.5248605,-0.0589 c 0.169782,-0.18784 0.293837,-0.43622 0.34036,-0.68148 0.04182,-0.22048 0.05415,-0.20376 -0.150189,-0.20376 h -0.176579 l -0.447788,0.45155 c -0.246284,0.24835 -0.447788,0.46352 -0.447788,0.47815 0,0.0315 0.0675,0.0371 0.507317,0.0421 l 0.293492,0.003 z m -8.411079,-0.68082 0.00608,-0.20442 H 7.0809581 c -0.1869076,0 -0.2776353,0.0124 -0.2776353,0.0379 0,0.009 0.088573,0.10584 0.1968286,0.215 0.1569122,0.15823 0.2011428,0.19416 0.2181011,0.17721 0.013816,-0.0138 0.023403,-0.0929 0.027349,-0.22569 z m 7.695878,0.012 c 0.08703,-0.09 0.15823,-0.17067 0.15823,-0.17932 0,-0.0248 -0.09255,-0.0371 -0.277942,-0.0371 h -0.17103 l 0.0072,0.20126 c 0.0039,0.1107 0.01313,0.21091 0.02042,0.22269 0.01912,0.031 0.07559,-0.0136 0.263151,-0.20751 z m -4.835045,0.0288 0.118078,-0.114 -0.0018,-0.25806 c -0.0025,-0.35251 -0.01888,-0.56162 -0.04473,-0.57015 -0.02402,-0.008 -0.6548021,0.60604 -0.6548021,0.63735 0,0.0307 0.4054884,0.41885 0.437604,0.41885 0.01517,0 0.080719,-0.0513 0.1456621,-0.11399 z m -1.2522952,-0.16889 0.1472971,-0.14604 -0.1421397,-0.13621 c -0.1512305,-0.14493 -0.2124067,-0.1707 -0.2319626,-0.0977 -0.017404,0.065 -0.011886,0.45778 0.00693,0.49293 0.00974,0.0182 0.030054,0.0331 0.045145,0.0331 0.01509,0 0.093721,-0.0657 0.1747343,-0.14604 z m -1.6329424,-0.43773 c 0.00322,-0.004 0.011484,-0.23541 0.018338,-0.5153 l 0.012462,-0.50891 H 6.5641205 5.8762437 l 0.011662,0.10692 c 0.034077,0.31244 0.1264856,0.50804 0.3797515,0.80379 l 0.1165729,0.13612 0.4155474,-0.008 c 0.228551,-0.004 0.4181918,-0.011 0.4214242,-0.0145 z m 2.4160701,-0.34652 c 0.2006772,-0.20117 0.3648685,-0.37762 0.3648685,-0.3921 0,-0.0382 -0.1290532,-0.14275 -0.2491801,-0.20189 -0.093271,-0.0459 -0.1287756,-0.0527 -0.3506721,-0.067 -0.135791,-0.009 -0.3681317,-0.0161 -0.5163123,-0.0163 l -0.2694185,-3.6e-4 v 0.23545 0.23545 l 0.2181007,0.21457 c 0.2851903,0.28056 0.3736053,0.35799 0.4087947,0.35799 0.015923,0 0.1931415,-0.1646 0.3938191,-0.36577 z m 5.9739825,0.26058 c 0.243687,-0.26782 0.367888,-0.52563 0.404625,-0.83991 l 0.0115,-0.0984 h -0.686209 -0.686209 l 0.0021,0.38917 c 0.0012,0.21403 0.0069,0.44273 0.01283,0.5082 0.0097,0.10832 0.01456,0.12011 0.05347,0.13087 0.02352,0.007 0.211377,0.0126 0.417458,0.0135 l 0.374692,0.002 0.09572,-0.1052 z m -5.274606,-2.21729 c 0.02715,-0.0152 -7.6e-4,-0.0389 -0.198501,-0.16828 -0.126549,-0.0828 -0.4918119,-0.31098 -0.8116931,-0.50701 l -0.5816025,-0.35643 -0.1242452,0.13329 c -0.2254001,0.24181 -0.385322,0.43875 -0.5033921,0.61991 -0.064059,0.0983 -0.1164715,0.19165 -0.1164715,0.20745 0,0.044 0.04191,0.0694 0.1408048,0.0852 0.1310305,0.0209 2.1557686,0.008 2.1951006,-0.0141 z m 3.340852,0.019 c 0.299984,-0.013 0.287604,7.3e-4 0.173516,-0.19403 -0.13835,-0.23635 -0.530072,-0.71739 -0.672882,-0.82631 l -0.06016,-0.0459 -0.510179,0.31871 c -0.849665,0.53078 -1.11214,0.70765 -1.078952,0.72705 0.0405,0.0237 1.707747,0.0396 2.148654,0.0205 z m -2.911824,-0.34367 c 0.0068,-0.0353 0.01295,-0.38745 0.01361,-0.7826 l 0.0012,-0.71845 -0.152951,0.005 c -0.190201,0.006 -0.477828,0.0681 -0.7793246,0.16921 -0.3344749,0.11221 -0.7355561,0.32512 -0.7355561,0.39046 0,0.0511 1.5325287,0.99741 1.6200147,1.00033 0.01133,3.6e-4 0.0262,-0.0282 0.03303,-0.0635 z m 0.604195,-0.0502 c 0.4681,-0.27879 1.326193,-0.83453 1.369932,-0.88723 0.03186,-0.0384 -0.0099,-0.0746 -0.201922,-0.17479 -0.433405,-0.22624 -0.846814,-0.35085 -1.294057,-0.39007 l -0.135345,-0.0119 0.01194,0.75514 c 0.0066,0.41533 0.01634,0.7666 0.02171,0.7806 0.01634,0.0426 0.05754,0.0296 0.227739,-0.0718 z"
       id="path853"
       inkscape:connector-curvature="0" />
    <path
       style="fill:#008000;fill-opacity:1;stroke:#000000;stroke-width:0.03600223;stroke-linecap:round;stroke-linejoin:round;stroke-miterlimit:4;stroke-dasharray:none;stroke-dashoffset:90;stroke-opacity:1"
       d="M 10.539535,295.17033 C 8.3542769,295.05398 6.4259832,294.22697 4.9159196,292.75848 4.2208849,292.08258 3.7226171,291.40471 3.2870457,290.54247 2.7729,289.52469 2.4967463,288.47842 2.438506,287.32761 c -0.1369874,-2.70684 1.0891449,-5.28035 3.3111697,-6.94977 1.2164756,-0.91395 2.6894162,-1.48392 4.2937653,-1.66152 0.347636,-0.0385 1.344898,-0.0385 1.712705,-2e-5 1.516136,0.15858 2.931025,0.6869 4.145585,1.54798 0.724374,0.51355 1.440904,1.22872 1.978264,1.97452 0.826558,1.14718 1.349808,2.5729 1.472436,4.012 0.03549,0.41654 0.01618,1.34731 -0.03562,1.7167 -0.211682,1.50946 -0.787878,2.85181 -1.727568,4.02467 -1.438771,1.79578 -3.538839,2.92061 -5.86853,3.1433 -0.284249,0.0272 -0.954258,0.0469 -1.181176,0.0349 z m 1.511905,-0.45449 c 0.691717,-0.10483 1.30083,-0.2644 1.87564,-0.49137 2.632826,-1.03962 4.508371,-3.31404 4.962926,-6.0184 0.08789,-0.52293 0.114931,-0.93325 0.099,-1.50242 -0.02356,-0.8416 -0.145047,-1.51004 -0.418111,-2.30054 -0.374793,-1.085 -0.953563,-2.01744 -1.777031,-2.86293 -0.191646,-0.19677 -0.348447,-0.36989 -0.348447,-0.38472 0,-0.0148 -0.01429,-0.027 -0.03176,-0.027 -0.01747,0 -0.147694,-0.0969 -0.289389,-0.21532 -0.480149,-0.40131 -1.225155,-0.86362 -1.818175,-1.12827 -1.083127,-0.48338 -2.197505,-0.71883 -3.400389,-0.71846 -0.9425621,2.9e-4 -1.7103625,0.11974 -2.5694522,0.39976 -1.7742587,0.57831 -3.2519664,1.70212 -4.2687615,3.24641 -0.6813703,1.03486 -1.1044666,2.23723 -1.2286226,3.49153 -0.035643,0.36009 -0.02947,1.13589 0.012195,1.53264 0.1628169,1.55042 0.806378,3.03371 1.8322797,4.22309 1.1837374,1.37236 2.7820887,2.30627 4.5650637,2.66734 0.2457399,0.0498 0.4972399,0.0867 0.9604049,0.14104 0.04548,0.005 0.406915,0.007 0.8032,0.003 0.579946,-0.006 0.782736,-0.0163 1.039434,-0.0552 z"
       id="path990"
       inkscape:connector-curvature="0" />
    <path
       style="fill:#008000;fill-opacity:1;stroke:#000000;stroke-width:0.03600223;stroke-linecap:round;stroke-linejoin:round;stroke-miterlimit:4;stroke-dasharray:none;stroke-dashoffset:90;stroke-opacity:1;filter:url(#filter1017)"
       d="M 10.539535,295.17015 C 8.354277,295.0538 6.425983,294.22679 4.91592,292.7583 c -0.695035,-0.6759 -1.193303,-1.35377 -1.628874,-2.21601 -0.514146,-1.01778 -0.7903,-2.06405 -0.84854,-3.21486 -0.136987,-2.70684 1.089145,-5.28035 3.31117,-6.94977 1.216475,-0.91395 2.689416,-1.48392 4.293765,-1.66152 0.347636,-0.0385 1.344898,-0.0385 1.712705,-2e-5 1.516136,0.15858 2.931025,0.6869 4.145585,1.54798 0.724374,0.51355 1.440904,1.22872 1.978264,1.97452 0.826558,1.14718 1.349808,2.5729 1.472436,4.012 0.03549,0.41654 0.01618,1.34731 -0.03562,1.7167 -0.211682,1.50946 -0.787878,2.85181 -1.727568,4.02467 -1.438771,1.79578 -3.538839,2.92061 -5.86853,3.1433 -0.284249,0.0272 -0.954258,0.0469 -1.181176,0.0349 z m 1.511905,-0.45449 c 0.691717,-0.10483 1.30083,-0.2644 1.87564,-0.49137 2.632826,-1.03962 4.508371,-3.31404 4.962926,-6.0184 0.08789,-0.52293 0.114931,-0.93325 0.099,-1.50242 -0.02356,-0.8416 -0.145047,-1.51004 -0.418111,-2.30054 -0.374793,-1.085 -0.953563,-2.01744 -1.777031,-2.86293 -0.191646,-0.19677 -0.348447,-0.36989 -0.348447,-0.38472 0,-0.0148 -0.01429,-0.027 -0.03176,-0.027 -0.01747,0 -0.147694,-0.0969 -0.289389,-0.21532 -0.480149,-0.40131 -1.225155,-0.86362 -1.818175,-1.12827 -1.083127,-0.48338 -2.197505,-0.71883 -3.400389,-0.71846 -0.942562,2.9e-4 -1.710362,0.11974 -2.569452,0.39976 -1.774259,0.57831 -3.251966,1.70212 -4.268762,3.24641 -0.68137,1.03486 -1.104466,2.23723 -1.228622,3.49153 -0.03564,0.36009 -0.02947,1.13589 0.01219,1.53264 0.162817,1.55042 0.806378,3.03371 1.832279,4.22309 1.183738,1.37236 2.782089,2.30627 4.565064,2.66734 0.24574,0.0498 0.49724,0.0867 0.960405,0.14104 0.04548,0.005 0.406915,0.007 0.8032,0.003 0.579946,-0.006 0.782736,-0.0163 1.039434,-0.0552 z"
       id="path990-8"
       inkscape:connector-curvature="0" />
    <path
       style="fill:#008000;fill-opacity:1;stroke:#000000;stroke-width:0.03784225;stroke-linecap:round;stroke-linejoin:round;stroke-miterlimit:4;stroke-dasharray:none;stroke-dashoffset:90;stroke-opacity:1;filter:url(#filter1040)"
       d="m 10.218635,296.17184 c -0.529351,-0.0499 -0.687735,-0.0691 -1.00582,-0.12202 -1.670086,-0.27806 -3.301882,-1.01726 -4.599589,-2.08361 -1.907775,-1.56766 -3.089488,-3.74624 -3.349174,-6.17448 -0.04071,-0.38068 -0.04047,-1.39734 4.18e-4,-1.76308 0.125051,-1.11857 0.399699,-2.07263 0.878178,-3.05059 0.324384,-0.66299 0.670637,-1.20659 1.135397,-1.78249 0.30495,-0.37787 1.056384,-1.12266 1.424331,-1.41174 1.528363,-1.20075 3.245351,-1.8948 5.203704,-2.10348 0.496953,-0.053 1.496975,-0.0534 1.987848,-7.5e-4 2.280987,0.24435 4.329401,1.19219 5.902978,2.73145 1.514672,1.48164 2.438319,3.33828 2.714922,5.45732 0.05561,0.4261 0.06354,1.58307 0.01359,1.98502 -0.227111,1.82754 -0.875875,3.37217 -2.002008,4.76655 -0.331253,0.41015 -1.045357,1.11603 -1.453578,1.43683 -1.551995,1.2196 -3.381258,1.93765 -5.363437,2.10532 -0.273126,0.0231 -1.276193,0.0297 -1.487761,0.009 z m 1.700298,-0.42783 c 1.171884,-0.13802 2.192649,-0.43396 3.200559,-0.92788 2.199608,-1.07793 3.844373,-2.93214 4.601379,-5.18733 0.433647,-1.29188 0.550769,-2.6338 0.348402,-3.99182 -0.426705,-2.86349 -2.310423,-5.36669 -5.012292,-6.66066 -1.069468,-0.51219 -2.140914,-0.80299 -3.368831,-0.91434 -0.419865,-0.038 -1.552959,-0.0167 -1.969602,0.0371 -1.635534,0.21138 -3.20181,0.83169 -4.469735,1.77022 -1.472786,1.09016 -2.554026,2.54724 -3.144212,4.23713 -0.324484,0.9291 -0.470964,1.80849 -0.470094,2.82222 8.47e-4,0.9833 0.141075,1.8272 0.457243,2.75168 1.062627,3.10712 3.835925,5.41405 7.183228,5.97528 0.307994,0.0516 0.494933,0.0746 1.006168,0.12332 0.193837,0.0185 1.403188,-0.007 1.637787,-0.035 z"
       id="path988-2"
       inkscape:connector-curvature="0" />
    <path
       style="fill:#008000;fill-opacity:1;stroke:#000000;stroke-width:0.03421191;stroke-linecap:round;stroke-linejoin:round;stroke-miterlimit:4;stroke-dasharray:none;stroke-dashoffset:90;stroke-opacity:1;filter:url(#filter1071)"
       d="m 10.39271,294.08049 c -1.1889942,-1.16199 -2.7694042,-2.73335 -3.6733302,-3.65229 -0.940703,-0.95633 -0.956137,-0.97313 -1.026368,-1.11688 -0.114418,-0.2342 -0.165482,-0.48025 -0.197271,-0.95053 l -0.01,-0.14744 0.137582,-0.008 c 0.07567,-0.004 0.142583,-0.013 0.148696,-0.0191 0.0061,-0.006 -0.02564,-0.0901 -0.07056,-0.18671 -0.127032,-0.27314 -0.18193,-0.51192 -0.192766,-0.83846 l -0.0089,-0.26942 0.109168,-2.3e-4 c 0.162914,-3.4e-4 0.191506,-0.0114 0.179836,-0.0698 -0.0053,-0.0264 -0.0475,-0.13119 -0.09381,-0.23278 -0.137005,-0.30057 -0.190895,-0.54499 -0.190421,-0.86368 1.43e-4,-0.097 0.0076,-0.18788 0.01647,-0.20199 0.01394,-0.022 0.137136,-0.0269 0.879864,-0.0342 0.542553,-0.005 0.869533,-0.0149 0.879463,-0.0257 0.02943,-0.0319 0.09709,-0.43444 0.07647,-0.45506 -0.02654,-0.0265 -0.585452,-0.0478 -1.281521,-0.0488 l -0.583641,-7.2e-4 -0.0106,-0.0642 c -0.0155,-0.0938 -0.01336,-1.03064 0.0023,-1.03064 0.0073,0 0.08624,0.0443 0.175336,0.0985 l 0.162001,0.0985 0.0047,0.27103 0.0047,0.27102 0.234763,-0.0121 c 0.12912,-0.007 0.239967,-0.017 0.246328,-0.0231 0.02666,-0.0254 0.253578,-0.60154 0.253578,-0.64382 0,-0.11291 -0.0653,-0.16347 -0.71845,-0.55634 -0.192869,-0.11601 -0.354521,-0.21407 -0.359225,-0.21792 -0.0047,-0.004 -0.0124,-0.4204 -0.01711,-0.92566 l -0.0085,-0.91865 0.162506,0.007 c 0.08938,0.004 0.170205,0.0139 0.179613,0.0228 0.01068,0.0101 0.02032,0.31601 0.02566,0.81474 l 0.0085,0.79855 0.153954,0.0964 c 0.264753,0.16582 0.458967,0.27196 0.497637,0.27196 0.02679,0 0.04,-0.0132 0.04714,-0.0471 0.0055,-0.0259 0.01531,-0.47618 0.0219,-1.00069 l 0.01197,-0.95366 h 0.159707 0.159708 l 0.0015,0.56022 c 0.0017,0.63641 0.02019,1.36593 0.03499,1.38073 0.02345,0.0235 0.07519,-0.0223 0.209667,-0.18522 0.07871,-0.0954 0.228405,-0.2658 0.332661,-0.3787 l 0.189555,-0.20527 6.88e-4,-0.58588 6.88e-4,-0.58588 h 0.160173 0.160175 l 0.01212,0.38061 c 0.01335,0.41905 0.01815,0.45758 0.05702,0.45758 0.01461,0 0.104223,-0.0474 0.19914,-0.10525 0.09492,-0.0579 0.234966,-0.14235 0.31122,-0.1877 0.07625,-0.0453 0.148708,-0.0946 0.16101,-0.1094 0.01302,-0.0157 0.02858,-0.1069 0.03724,-0.21825 0.0082,-0.10522 0.0204,-0.19655 0.02716,-0.20296 0.0068,-0.006 0.08734,-0.0143 0.179083,-0.0174 l 0.166796,-0.006 -1.3e-5,0.11445 c -8e-6,0.063 0.0077,0.11922 0.01711,0.12504 0.0094,0.006 0.149902,-0.028 0.312183,-0.0751 0.162282,-0.0471 0.327773,-0.0929 0.367758,-0.10184 l 0.0727,-0.0161 v 0.17707 0.17707 l -0.124018,0.0356 c -0.949658,0.27224 -1.737604,0.78335 -2.313177,1.50047 -0.266961,0.33262 -0.547794,0.77678 -0.65238,1.0318 -0.04541,0.11072 -0.09155,0.26287 -0.09193,0.30315 -1.53e-4,0.0165 0.09243,0.0214 0.40648,0.0214 h 0.406682 l 0.08073,-0.16252 c 0.30801,-0.62005 0.792038,-1.14576 1.398105,-1.5185 0.434859,-0.26744 1.0148642,-0.4687 1.5138782,-0.5253 0.09408,-0.0107 0.188379,-0.023 0.209548,-0.0273 l 0.03849,-0.008 v -0.52141 -0.52141 h 0.162507 0.162506 v 0.52141 0.52141 l 0.03849,0.008 c 0.02117,0.004 0.130861,0.0208 0.24376,0.0368 0.829677,0.11735 1.598197,0.48978 2.15413,1.0439 0.263377,0.26252 0.590773,0.71333 0.735924,1.01333 l 0.06757,0.13966 h 0.407118 c 0.376398,0 0.407103,-0.002 0.406933,-0.0299 -9.78e-4,-0.15108 -0.324879,-0.7777 -0.577031,-1.11616 -0.445423,-0.5979 -1.000929,-1.06276 -1.664099,-1.39257 -0.248452,-0.12356 -0.617783,-0.26303 -0.871969,-0.32929 l -0.05987,-0.0156 -0.0049,-0.18462 c -0.0048,-0.18196 -0.0043,-0.18446 0.03181,-0.17298 0.02018,0.006 0.111107,0.0329 0.202071,0.0589 0.09096,0.026 0.232837,0.0692 0.315274,0.0961 0.188928,0.0615 0.206344,0.0539 0.213464,-0.093 l 0.0051,-0.10513 h 0.167769 0.16777 l 0.0109,0.11546 c 0.006,0.0635 0.01096,0.15875 0.01103,0.21164 l 9.6e-5,0.0962 0.32929,0.19802 c 0.181108,0.10891 0.342064,0.20282 0.357679,0.20869 0.04413,0.0166 0.05141,-0.0324 0.06384,-0.43007 0.0063,-0.20075 0.01888,-0.37218 0.02802,-0.38094 0.0091,-0.009 0.08781,-0.0185 0.174841,-0.0217 l 0.158241,-0.006 -9e-6,0.60646 -9e-6,0.60645 0.209999,0.21463 c 0.1155,0.11805 0.269629,0.28584 0.342511,0.37286 0.07288,0.087 0.142984,0.15824 0.155785,0.15824 0.0128,0 0.02806,-0.0212 0.03392,-0.0471 0.0059,-0.0259 0.01563,-0.46464 0.02173,-0.97503 l 0.01108,-0.928 h 0.157326 0.157326 l 0.01181,0.91944 c 0.01262,0.98304 0.01774,1.08195 0.05594,1.08195 0.03502,0 0.171199,-0.0709 0.437706,-0.22791 l 0.235203,-0.13856 v -0.82187 -0.82186 l 0.141125,0.005 c 0.07762,0.003 0.158443,0.009 0.179612,0.0133 l 0.03849,0.008 v 0.71547 c 0,0.3935 0.0048,0.79556 0.01073,0.89346 l 0.01073,0.17799 -0.5624,0.3469 c -0.30932,0.1908 -0.572995,0.3535 -0.585944,0.36157 -0.01878,0.0117 0.0072,0.0878 0.128294,0.37618 0.176976,0.42136 0.146327,0.39476 0.455036,0.39492 l 0.183454,1.1e-4 0.0047,-0.26858 0.0047,-0.26857 0.162507,-0.0989 c 0.08938,-0.0544 0.168279,-0.099 0.175335,-0.0992 0.0071,-1.8e-4 0.01283,0.246 0.01283,0.54707 v 0.54738 l -0.594432,7.4e-4 c -0.690149,10e-4 -1.265743,0.0222 -1.291242,0.0477 -0.02296,0.0229 0.05191,0.4246 0.08539,0.45808 0.01949,0.0195 0.158219,0.0237 0.779427,0.0238 0.415644,7e-5 0.808684,0.005 0.87342,0.0112 l 0.117704,0.0111 -0.0094,0.24963 c -0.01118,0.29746 -0.05692,0.50311 -0.1718,0.77245 -0.08998,0.21097 -0.124365,0.31935 -0.106865,0.33687 0.007,0.007 0.0775,0.0154 0.156694,0.0188 0.167181,0.007 0.15311,-0.0238 0.126267,0.27622 -0.03403,0.38037 -0.118469,0.71143 -0.222985,0.8743 -0.0845,0.13168 -0.05732,0.16397 0.140937,0.16745 l 0.09695,0.002 -0.0085,0.20099 c -0.01488,0.35371 -0.07354,0.61517 -0.195395,0.87088 -0.07344,0.15411 -0.150802,0.24944 -0.516323,0.63617 -0.336561,0.3561 -4.696107,4.68958 -4.717783,4.68958 -0.0066,0 -0.254181,-0.2367 -0.550209,-0.52601 z m 0.717747,-0.12795 0.158552,-0.1579 v -1.51031 -1.5103 l -0.32929,0.005 -0.329289,0.005 -0.0044,1.50325 -0.0044,1.50326 0.157198,0.1603 c 0.08646,0.0882 0.165259,0.1603 0.175109,0.1603 0.0099,0 0.08926,-0.0711 0.176461,-0.1579 z m -0.856905,-0.64182 c 0.0068,-0.0353 0.01297,-0.60298 0.01361,-1.26156 0.0012,-1.27365 0.0017,-1.26586 -0.08006,-1.27748 -0.03668,-0.005 -0.03876,-0.0138 -0.04337,-0.17803 l -0.0048,-0.17257 0.516533,-0.0113 c 0.284093,-0.006 0.639594,-0.0113 0.790003,-0.0113 h 0.27347 l -0.01097,0.15458 c -0.0076,0.1074 -0.02276,0.17918 -0.0496,0.23521 l -0.03863,0.0806 -0.0046,1.06912 c -0.0025,0.58802 0.0013,1.14225 0.0086,1.23163 0.01959,0.24169 0.02472,0.24017 0.381851,-0.11308 l 0.289903,-0.28675 v -1.14737 -1.14738 l -0.278162,-0.27777 -0.27816,-0.27778 h -0.800632 -0.800502 l -0.2556012,0.2507 -0.255601,0.2507 v 1.20086 1.20086 l 0.281844,0.27614 c 0.1550152,0.15188 0.2932252,0.27614 0.3071332,0.27614 0.0156,0 0.03005,-0.0246 0.03774,-0.0641 z m -1.0068152,-1.998 0.0087,-1.01347 0.707423,-0.70727 c 0.3890832,-0.389 0.7074232,-0.71522 0.7074232,-0.72494 0,-0.01 -0.04994,-0.0672 -0.110984,-0.12768 l -0.110985,-0.11 -0.9216822,0.91447 -0.921681,0.91448 -0.0023,0.67878 -0.0023,0.67879 0.183889,0.17849 c 0.101138,0.0982 0.237469,0.2257 0.302957,0.28341 0.101576,0.0895 0.121391,0.10077 0.134881,0.0767 0.0089,-0.0159 0.01962,-0.4714 0.02453,-1.04173 z m 3.5911622,0.90889 c 0.08264,-0.0698 0.21184,-0.18928 0.287106,-0.26553 l 0.136848,-0.13862 0.0052,-0.68145 0.0052,-0.68146 -0.919695,-0.90951 -0.919695,-0.90951 -0.120275,0.12027 -0.120274,0.12028 0.712189,0.71413 0.71219,0.71414 0.0093,0.99215 c 0.0051,0.54568 0.01449,1.00561 0.02081,1.02208 0.0063,0.0165 0.01811,0.0299 0.02619,0.0299 0.0081,0 0.08231,-0.0571 0.164952,-0.12691 z m -4.5943782,-1.34003 c 0.0068,-0.26103 0.01289,-1.50031 0.01358,-2.75396 l 0.0013,-2.27937 h -0.325046 -0.325013 v 2.49341 2.49342 l 0.24376,0.2409 c 0.281834,0.27853 0.336062,0.32322 0.361403,0.29788 0.01071,-0.0107 0.02256,-0.20501 0.03003,-0.49228 z m 5.7535342,0.22355 0.265495,-0.25043 v -2.50322 -2.50323 h -0.325012 -0.325013 l 0.0014,2.11686 c 0.0014,2.16075 0.01516,3.36597 0.03877,3.40418 0.02111,0.0341 0.05846,0.006 0.344354,-0.26416 z m -6.7677992,-1.11372 0.006,-0.37129 -0.450658,-0.44537 c -0.247862,-0.24495 -0.488425,-0.47589 -0.534585,-0.51318 -0.08173,-0.066 -0.08792,-0.068 -0.236657,-0.0738 l -0.152731,-0.006 0.01134,0.10012 c 0.04578,0.40423 0.145242,0.55295 0.833082,1.24565 0.382338,0.38503 0.479264,0.47419 0.496631,0.45682 0.01564,-0.0156 0.02323,-0.12367 0.02758,-0.39287 z m 7.9581302,-0.0831 c 0.664923,-0.67253 0.760691,-0.81706 0.811653,-1.22493 l 0.01226,-0.0982 h -0.13547 c -0.119634,0 -0.144358,0.006 -0.211518,0.0487 -0.04183,0.0267 -0.290733,0.26183 -0.553123,0.5224 l -0.477074,0.47376 0.0084,0.36466 c 0.0046,0.20057 0.01394,0.3736 0.02069,0.38453 0.02007,0.0325 0.07728,-0.0189 0.524162,-0.47092 z m -6.4116792,-0.14668 c 0.192657,-0.16869 1.3985212,-1.36575 1.3985212,-1.38831 0,-0.0316 -0.2062272,-0.21573 -0.2416052,-0.21573 -0.02173,0 -0.267235,0.23154 -0.683029,0.64417 l -0.649114,0.64417 v 0.19262 c 0,0.17326 0.0082,0.24674 0.02738,0.24674 0.0036,0 0.07017,-0.0557 0.147847,-0.12366 z m 4.4944372,-0.12724 2.91e-4,-0.20813 -0.602984,-0.5899 c -0.689704,-0.67473 -0.701304,-0.68516 -0.746177,-0.67092 -0.05085,0.0161 -0.20748,0.1813 -0.20748,0.21878 0,0.0394 0.30822,0.3577 0.838593,0.86598 0.535936,0.5136 0.684778,0.64401 0.702731,0.61567 0.0081,-0.0129 0.01491,-0.11701 0.01505,-0.23148 z m -1.982297,-0.0861 c 0.01588,-0.0159 0.0136,-0.031 -0.01019,-0.0673 -0.04812,-0.0734 -0.319001,-0.34841 -0.343227,-0.34841 -0.02555,0 -0.248218,0.23586 -0.311514,0.32997 -0.07047,0.10478 -0.04585,0.11224 0.358755,0.10872 0.196273,-0.002 0.292119,-0.009 0.306174,-0.023 z m -4.0668232,-0.56537 c 0.0058,-0.0353 0.01069,-0.1392 0.01079,-0.23093 l 1.91e-4,-0.16679 -0.218101,2.9e-4 c -0.119955,1e-4 -0.228981,0.007 -0.24228,0.0156 -0.01904,0.0121 -0.0028,0.0396 0.07632,0.12978 0.115889,0.132 0.315249,0.31544 0.343333,0.31592 0.01053,2e-4 0.02391,-0.0285 0.02975,-0.0638 z m 7.6241432,-0.0706 c 0.196336,-0.18201 0.285507,-0.29144 0.253837,-0.31149 -0.01316,-0.008 -0.122066,-0.0153 -0.242021,-0.0154 l -0.218101,-2.9e-4 v 0.15157 c 0,0.19041 0.01598,0.31029 0.04137,0.31029 0.01079,0 0.085,-0.0606 0.164919,-0.1347 z m -6.0342322,-0.18936 0.157323,-0.153 -0.102636,-0.10418 c -0.140872,-0.143 -0.228457,-0.20291 -0.249055,-0.17035 -0.01722,0.0272 -0.02166,0.48102 -0.0053,0.54205 0.0057,0.0212 0.01752,0.0385 0.02633,0.0385 0.0088,0 0.08681,-0.0688 0.173341,-0.153 z m 4.4490872,0.10884 c 0.0057,-0.0149 0.01038,-0.1347 0.01038,-0.26627 0,-0.35263 -0.02696,-0.37618 -0.209808,-0.18328 -0.158733,0.16747 -0.160407,0.18176 -0.03619,0.30899 0.09129,0.0935 0.18576,0.16739 0.21423,0.16756 0.0061,3e-5 0.01567,-0.0121 0.02138,-0.027 z m -2.123236,-0.40473 c 0.283296,-0.25593 0.508554,-0.49054 0.508554,-0.52965 0,-0.0214 -0.06051,-0.097 -0.153954,-0.1923 l -0.153953,-0.15699 v -0.54701 c 0,-0.60903 0.0068,-0.66125 0.111615,-0.86053 0.133436,-0.25363 0.287998,-0.39671 0.598282,-0.55384 l 0.17106,-0.0866 0.99828,-0.0131 c 0.549055,-0.007 1.002518,-0.0174 1.007695,-0.0226 0.0085,-0.009 -0.02161,-0.13267 -0.0926,-0.38173 l -0.0256,-0.0898 H 10.936178 7.7661848 l -0.05258,0.19244 c -0.02892,0.10584 -0.05757,0.21361 -0.06367,0.23948 l -0.01109,0.047 0.100214,0.001 c 0.05512,7.2e-4 0.50819,0.007 1.006829,0.0138 l 0.906615,0.0124 0.178482,0.0891 c 0.3000652,0.14982 0.4470012,0.28498 0.5797212,0.53323 0.119618,0.22375 0.122754,0.24599 0.122754,0.87071 v 0.5566 l -0.156418,0.14606 c -0.130944,0.12227 -0.154498,0.15211 -0.144626,0.18322 0.01662,0.0524 0.665083,0.70667 0.70036,0.70667 0.01597,0 0.107774,-0.0711 0.204018,-0.15809 z m -1.6596262,-0.34499 c 0.110547,-0.10273 0.200995,-0.19502 0.200995,-0.2051 0,-0.0232 -0.412623,-0.43792 -0.435707,-0.43792 -0.0094,0 -0.115379,0.098 -0.235469,0.21786 l -0.218343,0.21786 0.217177,0.21766 c 0.183239,0.18365 0.221331,0.21444 0.243764,0.19703 0.01462,-0.0113 0.117036,-0.10467 0.227583,-0.20739 z m 3.2392262,0.14271 c 0.03658,-0.0288 0.176191,-0.15645 0.31026,-0.28356 l 0.24376,-0.2311 v -0.93363 -0.93364 l -0.431926,0.0107 c -0.237559,0.006 -0.476732,0.0183 -0.531495,0.0276 -0.239072,0.0406 -0.440728,0.20059 -0.55424,0.43962 -0.07536,0.15867 -0.09551,0.30866 -0.0469,0.349 0.02372,0.0197 0.140519,0.0281 0.566294,0.0407 l 0.536409,0.0159 v 0.16816 0.16816 h -0.564499 -0.564497 v 0.13428 c 0,0.12279 0.0046,0.14072 0.05328,0.20955 0.106247,0.15009 0.853747,0.87069 0.903187,0.87069 0.0076,0 0.04379,-0.0236 0.08037,-0.0525 z m -5.6006392,-0.0468 c 0.01296,-0.013 -0.114966,-0.15283 -0.440181,-0.48123 l -0.458458,-0.46296 h -0.17847 -0.17847 l 0.01222,0.10692 c 0.03665,0.32058 0.149018,0.56026 0.373773,0.79724 l 0.07067,0.0745 0.390318,-0.008 c 0.243256,-0.005 0.397204,-0.015 0.408594,-0.0264 z m 8.5248612,-0.0589 c 0.169782,-0.18784 0.293837,-0.43622 0.34036,-0.68148 0.04182,-0.22048 0.05415,-0.20376 -0.150189,-0.20376 H 15.6542 l -0.447788,0.45155 c -0.246284,0.24835 -0.447788,0.46352 -0.447788,0.47815 0,0.0315 0.0675,0.0371 0.507317,0.0421 l 0.293492,0.003 z m -8.4110792,-0.68082 0.0061,-0.20442 h -0.170744 c -0.186908,0 -0.277635,0.0124 -0.277635,0.0379 0,0.009 0.08857,0.10584 0.196828,0.215 0.156913,0.15823 0.201143,0.19416 0.218101,0.17721 0.01382,-0.0138 0.0234,-0.0929 0.02735,-0.22569 z m 7.6958782,0.012 c 0.08703,-0.09 0.15823,-0.17067 0.15823,-0.17932 0,-0.0248 -0.09255,-0.0371 -0.277942,-0.0371 h -0.17103 l 0.0072,0.20126 c 0.0039,0.1107 0.01313,0.21091 0.02042,0.22269 0.01912,0.031 0.07559,-0.0136 0.263151,-0.20751 z m -4.835045,0.0288 0.118078,-0.11399 -0.0018,-0.25807 c -0.0025,-0.35251 -0.01888,-0.56162 -0.04473,-0.57015 -0.02402,-0.008 -0.6548022,0.60604 -0.6548022,0.63735 0,0.0307 0.405488,0.41885 0.437604,0.41885 0.01517,0 0.08072,-0.0513 0.1456622,-0.11399 z m -1.2522952,-0.16889 0.147297,-0.14604 -0.14214,-0.13621 c -0.15123,-0.14493 -0.212407,-0.1707 -0.231963,-0.0977 -0.0174,0.065 -0.01189,0.45778 0.0069,0.49293 0.0097,0.0182 0.03005,0.0331 0.04514,0.0331 0.01509,0 0.09372,-0.0657 0.174735,-0.14604 z m -1.632943,-0.43772 c 0.0032,-0.004 0.01148,-0.23541 0.01834,-0.5153 l 0.01246,-0.50891 h -0.687877 -0.687876 l 0.01166,0.10692 c 0.03408,0.31244 0.126485,0.50804 0.379751,0.80379 l 0.116573,0.13612 0.415547,-0.008 c 0.228551,-0.004 0.418192,-0.011 0.421425,-0.0145 z m 2.41607,-0.34652 c 0.200678,-0.20117 0.364869,-0.37762 0.364869,-0.3921 0,-0.0382 -0.129053,-0.14275 -0.24918,-0.20189 -0.09327,-0.0459 -0.128776,-0.0527 -0.350672,-0.067 -0.135791,-0.009 -0.368132,-0.0161 -0.516313,-0.0163 l -0.269418,-3.8e-4 v 0.23545 0.23545 l 0.218101,0.21457 c 0.28519,0.28056 0.373605,0.35799 0.408794,0.35799 0.01592,0 0.193142,-0.1646 0.393819,-0.36577 z m 5.9739832,0.26058 c 0.243687,-0.26782 0.367888,-0.52563 0.404625,-0.83991 l 0.0115,-0.0984 h -0.686208 -0.686209 l 0.0021,0.38917 c 0.0012,0.21403 0.0069,0.44273 0.01283,0.5082 0.0097,0.10832 0.01456,0.12011 0.05347,0.13087 0.02352,0.007 0.211377,0.0126 0.417458,0.0135 l 0.374692,0.002 0.09572,-0.1052 z m -5.274606,-2.21729 c 0.02715,-0.0152 -7.67e-4,-0.0389 -0.198501,-0.16828 -0.1265492,-0.0828 -0.4918122,-0.31098 -0.8116932,-0.50701 l -0.581603,-0.35643 -0.124245,0.13329 c -0.2254,0.24181 -0.385322,0.43875 -0.503392,0.61991 -0.06406,0.0983 -0.116471,0.19165 -0.116471,0.20745 0,0.044 0.04191,0.0694 0.140804,0.0852 0.131031,0.0209 2.1557692,0.008 2.1951012,-0.0141 z m 3.340852,0.019 c 0.299984,-0.013 0.287604,7.4e-4 0.173516,-0.19403 -0.13835,-0.23635 -0.530072,-0.71739 -0.672882,-0.82631 l -0.06016,-0.0459 -0.510179,0.31871 c -0.849665,0.53078 -1.11214,0.70765 -1.078952,0.72705 0.0405,0.0237 1.707747,0.0396 2.148654,0.0205 z m -2.911824,-0.34367 c 0.0068,-0.0353 0.01295,-0.38745 0.01361,-0.7826 l 0.0012,-0.71845 -0.152951,0.005 c -0.190201,0.006 -0.477828,0.0681 -0.7793252,0.16921 -0.334475,0.11221 -0.735556,0.32512 -0.735556,0.39046 0,0.0511 1.5325292,0.99741 1.6200152,1.00033 0.01133,3.7e-4 0.0262,-0.0282 0.03303,-0.0635 z m 0.604195,-0.0502 c 0.4681,-0.27879 1.326193,-0.83453 1.369932,-0.88723 0.03186,-0.0384 -0.0099,-0.0746 -0.201922,-0.17479 -0.433405,-0.22624 -0.846814,-0.35085 -1.294057,-0.39007 l -0.135345,-0.0119 0.01194,0.75514 c 0.0066,0.41533 0.01634,0.7666 0.02171,0.7806 0.01634,0.0426 0.05754,0.0296 0.227739,-0.0718 z"
       id="path853-8"
       inkscape:connector-curvature="0" />
  </g>
</svg>
