<?xml version="1.0" encoding="UTF-8" standalone="no"?>
<!-- Created with Inkscape (http://www.inkscape.org/) -->

<svg
   xmlns:dc="http://purl.org/dc/elements/1.1/"
   xmlns:cc="http://creativecommons.org/ns#"
   xmlns:rdf="http://www.w3.org/1999/02/22-rdf-syntax-ns#"
   xmlns:svg="http://www.w3.org/2000/svg"
   xmlns="http://www.w3.org/2000/svg"
   xmlns:sodipodi="http://sodipodi.sourceforge.net/DTD/sodipodi-0.dtd"
   xmlns:inkscape="http://www.inkscape.org/namespaces/inkscape"
   width="80"
   height="80"
   viewBox="0 0 21.166666 21.166666"
   version="1.1"
   id="svg8"
   inkscape:version="0.92.4 (5da689c313, 2019-01-14)"
   sodipodi:docname="logo.svg">
  <defs
     id="defs2">
    <filter
       inkscape:collect="always"
       style="color-interpolation-filters:sRGB"
       id="filter1017"
       x="-0.023677122"
       width="1.0473542"
       y="-0.024331806"
       height="1.0486636">
      <feGaussianBlur
         inkscape:collect="always"
         stdDeviation="0.16714449"
         id="feGaussianBlur1019" />
    </filter>
    <filter
       inkscape:collect="always"
       style="color-interpolation-filters:sRGB"
       id="filter1040"
       x="-0.023514545"
       width="1.0470291"
       y="-0.024505922"
       height="1.0490118">
      <feGaussianBlur
         inkscape:collect="always"
         stdDeviation="0.18934065"
         id="feGaussianBlur1042" />
    </filter>
    <filter
       inkscape:collect="always"
       style="color-interpolation-filters:sRGB"
       id="filter1071"
       x="-0.026562413"
       width="1.0531248"
       y="-0.021888471"
       height="1.0437769">
      <feGaussianBlur
         inkscape:collect="always"
         stdDeviation="0.12130883"
         id="feGaussianBlur1073" />
    </filter>
  </defs>
  <sodipodi:namedview
     id="base"
     pagecolor="#ffffff"
     bordercolor="#666666"
     borderopacity="1.0"
     inkscape:pageopacity="0.0"
     inkscape:pageshadow="2"
     inkscape:zoom="7.9195959"
     inkscape:cx="56.372928"
     inkscape:cy="50.821884"
     inkscape:document-units="mm"
     inkscape:current-layer="layer1"
     showgrid="false"
     units="px"
     inkscape:window-width="1920"
     inkscape:window-height="1017"
     inkscape:window-x="-8"
     inkscape:window-y="-8"
     inkscape:window-maximized="1" />
  <metadata
     id="metadata5">
    <rdf:RDF>
      <cc:Work
         rdf:about="">
        <dc:format>image/svg+xml</dc:format>
        <dc:type
           rdf:resource="http://purl.org/dc/dcmitype/StillImage" />
        <dc:title />
      </cc:Work>
    </rdf:RDF>
  </metadata>
  <g
     inkscape:label="Layer 1"
     inkscape:groupmode="layer"
     id="layer1"
     transform="translate(0,-275.83334)">
    <ellipse
       style="fill:#ffffff;fill-opacity:1;stroke:#008000;stroke-width:0.02775382;stroke-linecap:round;stroke-linejoin:round;stroke-miterlimit:4;stroke-dasharray:none;stroke-dashoffset:90;stroke-opacity:1"
       id="path849"
       cx="10.663758"
       cy="286.07452"
       rx="10.141857"
       ry="9.8013592" />
    <path
       style="fill:#000000;stroke:none;stroke-width:0.03710783"
       d="M 8.0486061,291.56178 C 6.592207,290.10291 5.3578399,288.84219 5.3055704,288.76021 5.1465888,288.51083 5.0567322,288.19362 5.0338289,287.80088 l -0.021183,-0.36325 h 0.1532096 c 0.084267,0 0.1532107,-0.009 0.1532107,-0.0199 0,-0.0109 -0.042861,-0.10513 -0.095247,-0.20935 -0.1173379,-0.23342 -0.1989321,-0.60772 -0.1997826,-0.91645 l -6.813e-4,-0.2329 h 0.1456549 c 0.080111,0 0.1547335,-0.0148 0.1658288,-0.0329 0.011093,-0.0181 -0.035898,-0.14135 -0.1044289,-0.27388 -0.1386431,-0.26814 -0.2176685,-0.6484 -0.1999867,-0.9623 l 0.011411,-0.20258 0.9259476,-0.009 0.9259492,-0.009 0.044227,-0.21585 c 0.024323,-0.11872 0.044225,-0.23553 0.044225,-0.25957 0,-0.0321 -0.2623485,-0.0463 -0.9886533,-0.0536 l -0.9886551,-0.009 -0.010189,-0.58681 c -0.0056,-0.32274 -0.0017,-0.58679 0.0087,-0.58679 0.010377,0 0.1022701,0.0517 0.2042137,0.11496 l 0.1853501,0.11497 v 0.27794 0.27794 l 0.2417212,-0.011 0.2417221,-0.011 0.1309354,-0.31669 c 0.2046801,-0.49527 0.2442286,-0.41752 -0.4184958,-0.82274 l -0.5838958,-0.35703 -0.00987,-0.97689 -0.00987,-0.9769 0.1946522,0.0113 0.1946532,0.0113 0.01003,0.85691 0.01003,0.8569 0.3405042,0.21164 c 0.237071,0.14734 0.3489287,0.19826 0.3682407,0.16764 0.015255,-0.0241 0.027993,-0.50921 0.028304,-1.07784 l 5.674e-4,-1.03389 H 6.316974 6.5017695 v 1.02238 c 0,0.5623 0.013802,1.03097 0.030664,1.04148 0.016866,0.0106 0.090834,-0.0598 0.1643704,-0.15615 0.073536,-0.0964 0.2343678,-0.28393 0.357402,-0.41674 l 0.2236995,-0.243 v -0.62474 -0.62473 h 0.1847944 0.1847955 v 0.44708 c 0,0.31132 0.012864,0.44709 0.042373,0.44709 0.023306,0 0.1272542,-0.056 0.2309944,-0.12442 0.1037414,-0.0685 0.2585802,-0.16331 0.344086,-0.21085 0.1536294,-0.0854 0.1555939,-0.0891 0.1663165,-0.31336 l 0.010852,-0.22691 0.1940357,-0.0113 0.1940347,-0.0113 v 0.13235 c 0,0.0728 0.012474,0.13213 0.027721,0.13186 0.015247,-2.7e-4 0.1358237,-0.0346 0.2679517,-0.0764 0.1321292,-0.0418 0.3026025,-0.09 0.3788301,-0.10733 l 0.1385965,-0.0314 v 0.19524 0.19521 l -0.2864322,0.0831 c -0.6853553,0.19895 -1.4223532,0.64302 -1.9508164,1.17543 -0.4636095,0.46707 -0.9759173,1.26391 -1.0725852,1.6683 l -0.024493,0.1025 0.4197958,-1.6e-4 0.4197968,-1.3e-4 0.1280097,-0.24953 c 0.5821637,-1.13487 1.7489779,-1.93239 3.0412266,-2.07869 l 0.212515,-0.024 v -0.55617 -0.55618 h 0.184795 0.184796 v 0.55658 0.55658 l 0.175556,0.0225 c 0.949726,0.12207 1.758148,0.507 2.378843,1.13272 0.266909,0.26905 0.612135,0.7513 0.756523,1.05677 l 0.06605,0.13971 h 0.422189 0.42219 l -0.02443,-0.10249 c -0.04535,-0.19016 -0.326569,-0.72332 -0.54116,-1.02593 -0.632147,-0.89145 -1.547656,-1.54847 -2.55622,-1.83445 l -0.212514,-0.0603 v -0.19991 -0.19988 l 0.251097,0.0702 c 0.138102,0.0386 0.297186,0.0879 0.353517,0.1094 0.173569,0.0666 0.208485,0.0513 0.208485,-0.0911 v -0.1304 h 0.183031 0.183031 l 0.01102,0.22845 0.01102,0.22846 0.351112,0.21664 c 0.193109,0.11915 0.363056,0.21754 0.377657,0.21863 0.0146,10e-4 0.03123,-0.195 0.03696,-0.43577 l 0.01045,-0.43778 0.194035,-0.0113 0.194035,-0.0113 v 0.64591 0.64592 l 0.205312,0.20363 c 0.112921,0.11201 0.272803,0.29148 0.355292,0.39884 0.08249,0.10735 0.164734,0.186 0.18276,0.17477 0.01802,-0.0112 0.03277,-0.48049 0.03277,-1.04279 v -1.02238 h 0.184796 0.184793 v 1.06184 c 0,0.79325 0.01108,1.06183 0.04378,1.06183 0.02408,0 0.19039,-0.0876 0.36959,-0.19445 l 0.325817,-0.19445 v -0.86933 -0.86934 l 0.194035,0.0113 0.194033,0.0113 0.0098,0.95481 0.0098,0.95481 -0.606105,0.37751 -0.606107,0.37751 0.137607,0.32563 c 0.07569,0.17909 0.148054,0.35497 0.160823,0.39083 0.01889,0.053 0.06819,0.0652 0.26461,0.0652 h 0.241394 v -0.27622 -0.27623 l 0.185351,-0.11497 c 0.101939,-0.0632 0.193838,-0.11497 0.204212,-0.11497 0.01035,0 0.01429,0.26406 0.0087,0.5868 l -0.01018,0.5868 -0.988652,0.009 c -0.726305,0.007 -0.988654,0.0215 -0.988654,0.0537 0,0.024 0.0199,0.14085 0.04422,0.25957 l 0.04422,0.21584 0.92595,0.009 0.925949,0.009 0.01154,0.16191 c 0.0198,0.27771 -0.06217,0.68007 -0.197344,0.96882 -0.0705,0.15059 -0.118922,0.28891 -0.107603,0.30736 0.01131,0.0184 0.08862,0.0336 0.171766,0.0336 h 0.151191 l -0.02313,0.32851 c -0.02402,0.34121 -0.129816,0.75487 -0.225789,0.88288 -0.09329,0.12444 -0.07031,0.16713 0.09001,0.16713 h 0.147834 l -2.79e-4,0.1956 c -5.67e-4,0.34739 -0.07153,0.67231 -0.209737,0.95936 -0.129728,0.26945 -0.229503,0.3746 -2.79306,2.94332 -1.462189,1.46516 -2.669454,2.66716 -2.682808,2.67113 -0.01336,0.004 -1.2158854,-1.18639 -2.6722841,-2.64527 z m 2.8435789,1.93806 0.155531,-0.15976 v -1.59134 -1.59134 h -0.332631 -0.332631 v 1.59134 1.59134 l 0.15553,0.15976 c 0.08554,0.0879 0.165239,0.15974 0.177101,0.15974 0.01186,0 0.09156,-0.0719 0.1771,-0.15974 z m -0.879323,-1.98474 c 0,-1.34438 -7.19e-4,-1.3577 -0.07584,-1.3577 -0.068274,0 -0.07474,-0.0195 -0.06467,-0.1956 l 0.011181,-0.19559 0.822338,-0.0105 0.82234,-0.0106 v 0.18966 c 0,0.114 -0.02089,0.21072 -0.0524,0.24247 -0.04311,0.0435 -0.05265,0.27881 -0.05388,1.32963 -8.33e-4,0.72236 0.0134,1.30096 0.03278,1.33236 0.02742,0.0445 0.09717,-0.007 0.349546,-0.26033 l 0.315287,-0.31585 v -1.21087 -1.21086 l -0.285568,-0.28957 -0.285564,-0.28956 H 10.716836 9.8852592 l -0.2688215,0.26917 -0.2688231,0.2692 v 1.24827 1.24828 l 0.3022337,0.30625 c 0.1662261,0.16844 0.3159117,0.29774 0.3326305,0.28732 0.01672,-0.0105 0.030395,-0.62989 0.030395,-1.37663 z m -1.0718109,-0.77056 v -1.08944 l 0.7478965,-0.7546 0.7478964,-0.75461 -0.119815,-0.12078 -0.119815,-0.12079 -0.9607136,0.96793 -0.960712,0.96794 v 0.70146 0.70146 l 0.304912,0.29455 c 0.1677019,0.162 0.3173855,0.29496 0.3326311,0.29544 0.015247,3.1e-4 0.027721,-0.48936 0.027721,-1.08856 z m 4.1837549,0.51196 c 0.01564,-0.0206 0.0287,-0.34786 0.02901,-0.72748 l 5.67e-4,-0.69021 -0.961407,-0.96654 -0.961409,-0.96654 -0.119118,0.12008 -0.11912,0.12008 0.747895,0.75461 0.747897,0.7546 v 1.0646 c 0,0.58553 0.01158,1.07628 0.02574,1.09055 0.02109,0.0213 0.509414,-0.42206 0.609947,-0.55375 z m -5.2186086,-3.37179 v -2.90606 H 7.5735663 7.2409351 v 2.6165 2.61649 l 0.2855658,0.28957 c 0.1570607,0.15926 0.3067445,0.28957 0.3326315,0.28957 0.037713,0 0.047065,-0.57751 0.047065,-2.90607 z m 5.9957866,2.6182 0.287249,-0.28787 v -2.61819 -2.6182 H 13.856602 13.52397 v 2.90606 c 0,2.27209 0.01,2.90607 0.04538,2.90607 0.02497,0 0.174644,-0.12954 0.332632,-0.28787 z m -7.0675976,-1.15539 v -0.40008 L 6.2897021,288.39746 C 5.7532539,287.85577 5.7425653,287.84745 5.5826742,287.84745 H 5.4203291 l 0.018149,0.16233 c 0.039124,0.3499 0.1810538,0.56337 0.7770674,1.16873 0.3081676,0.31298 0.573475,0.56907 0.5895732,0.56907 0.016098,0 0.029268,-0.18003 0.029268,-0.40006 z m 8.3830506,-0.17307 c 0.595534,-0.60821 0.720597,-0.7957 0.769184,-1.15304 l 0.02364,-0.17396 h -0.162559 c -0.160171,0 -0.170576,0.008 -0.707245,0.55001 l -0.544684,0.54998 v 0.40008 c 0,0.22003 0.01361,0.40006 0.03025,0.40006 0.01664,0 0.28277,-0.2579 0.591404,-0.57313 z m -5.4067634,-1.66116 c -0.059018,-0.0621 -0.1248258,-0.11291 -0.1462316,-0.11291 -0.021407,0 -0.3426093,0.3058 -0.7137859,0.67956 l -0.6748677,0.67956 v 0.2084 c 0,0.11462 0.011763,0.22025 0.026124,0.23474 0.01437,0.0146 0.3838644,-0.33429 0.8210996,-0.77504 l 0.7949716,-0.80139 z m 3.3437074,1.45936 V 288.761 l -0.674127,-0.68032 c -0.370773,-0.37416 -0.690019,-0.6803 -0.709441,-0.6803 -0.04819,0 -0.24228,0.1907 -0.244084,0.23983 -0.002,0.0539 1.565013,1.58291 1.599933,1.56128 0.01524,-0.009 0.02773,-0.11242 0.02773,-0.22884 z m -2.079518,-0.11234 c 0.0319,-0.0205 -0.01548,-0.09 -0.157489,-0.23143 l -0.203117,-0.20222 -0.18909,0.19062 c -0.106014,0.10688 -0.177946,0.20881 -0.163722,0.232 0.02914,0.0475 0.641612,0.057 0.713418,0.011 z m -4.2404766,-0.77067 v -0.24219 H 6.5941528 c -0.1321292,0 -0.2402351,0.0121 -0.2402351,0.0269 0,0.0367 0.4154539,0.45748 0.4515926,0.45748 0.015883,0 0.028878,-0.10898 0.028878,-0.24217 z m 8.0282786,0.029 c 0.117471,-0.11718 0.213584,-0.22616 0.213584,-0.24217 0,-0.016 -0.108103,-0.029 -0.240233,-0.029 h -0.240232 v 0.24218 c 0,0.13319 0.01198,0.24217 0.02665,0.24217 0.01466,0 0.122763,-0.0958 0.240236,-0.21307 z m -6.3727448,-0.13305 0.1556033,-0.15983 -0.1593962,-0.1577 c -0.087666,-0.0867 -0.1708574,-0.14614 -0.1848666,-0.13201 -0.035614,0.0359 -0.032046,0.60937 0.00378,0.60937 0.016098,0 0.099286,-0.072 0.1848685,-0.15983 z m 4.6644608,-0.17766 c 0,-0.35071 -0.03453,-0.37148 -0.238747,-0.1436 -0.133849,0.14936 -0.135175,0.15379 -0.06898,0.23076 0.117011,0.13606 0.250783,0.24417 0.279784,0.22609 0.01538,-0.009 0.02794,-0.15054 0.02794,-0.31325 z m -2.057901,-0.29907 c 0.196781,-0.18617 0.357786,-0.35871 0.357786,-0.38342 0,-0.0247 -0.07484,-0.119 -0.166316,-0.2095 l -0.166315,-0.16453 2.7e-5,-0.61631 c 3e-5,-0.6025 0.0024,-0.62131 0.106494,-0.83985 0.132065,-0.27729 0.326042,-0.46785 0.614179,-0.60337 l 0.221754,-0.10428 1.043941,-0.0128 1.043941,-0.0128 -0.02401,-0.099 c -0.01321,-0.0545 -0.04297,-0.16609 -0.06615,-0.24805 l -0.04215,-0.14903 H 10.715085 7.4105012 l -0.042145,0.14904 c -0.023177,0.082 -0.052949,0.19358 -0.066152,0.24805 l -0.02401,0.099 1.0439403,0.0128 1.0439416,0.0128 0.2217542,0.10428 c 0.2881381,0.13552 0.4821137,0.32608 0.6141787,0.60338 0.104175,0.21874 0.106464,0.23687 0.106492,0.84444 l 3e-5,0.62089 -0.166315,0.14758 c -0.09148,0.0811 -0.1663164,0.16192 -0.1663164,0.17947 0,0.0354 0.7065294,0.75973 0.7410514,0.75973 0.01197,0 0.182742,-0.15232 0.379525,-0.33851 z m -1.927869,-0.18283 0.2342127,-0.22327 -0.230887,-0.23274 -0.2308856,-0.23276 -0.2302291,0.23208 -0.230228,0.2321 0.2198313,0.22393 c 0.1209082,0.12317 0.223014,0.22395 0.226903,0.22395 0.00388,0 0.1124652,-0.1005 0.2412827,-0.22329 z m 3.680086,-0.12052 0.305684,-0.30656 v -0.96019 -0.96019 l -0.508187,7.6e-4 c -0.571274,7.7e-4 -0.710542,0.0402 -0.923356,0.26079 -0.135442,0.14036 -0.244081,0.39336 -0.22557,0.52529 0.01243,0.0886 0.01295,0.0887 0.59454,0.0989 l 0.582106,0.0106 v 0.18533 0.18535 h -0.591345 -0.591345 v 0.15782 c 0,0.15244 0.01606,0.17404 0.470695,0.63338 0.258881,0.26154 0.495534,0.47554 0.525893,0.47554 0.03036,0 0.192758,-0.13795 0.360885,-0.30654 z m -6.1251879,0.20461 c 0,-0.0151 -0.2118125,-0.24143 -0.4706946,-0.50297 L 5.7821206,286.4317 H 5.6008842 5.4196462 l 0.02239,0.19057 c 0.027411,0.23331 0.144947,0.48614 0.3133501,0.67405 l 0.1266649,0.14133 h 0.4207294 c 0.2314001,0 0.4207286,-0.0123 0.4207286,-0.0274 z m 8.9457599,-0.11059 c 0.152011,-0.17453 0.286801,-0.46929 0.317352,-0.69398 l 0.02364,-0.17395 h -0.180064 -0.180065 l -0.471743,0.4745 c -0.259457,0.26096 -0.47174,0.4873 -0.47174,0.50296 0,0.0157 0.18954,0.0284 0.4212,0.0284 h 0.4212 z M 6.8343864,286.6552 v -0.22354 H 6.6126318 c -0.1219655,0 -0.2217538,0.012 -0.2217538,0.0268 0,0.0367 0.3784014,0.42032 0.4145259,0.42032 0.015939,0 0.028981,-0.1006 0.028981,-0.22354 z m 8.0097086,0.0292 c 0.107358,-0.10688 0.195196,-0.20747 0.195196,-0.22355 0,-0.016 -0.09979,-0.0291 -0.221753,-0.0291 h -0.221754 v 0.22353 c 0,0.12295 0.01194,0.22354 0.02656,0.22354 0.01461,0 0.114395,-0.0875 0.221754,-0.19432 z m -5.0270257,7.5e-4 0.1218757,-0.11908 v -0.43976 c 0,-0.24189 -0.01282,-0.43979 -0.028491,-0.43979 -0.015671,0 -0.1773918,0.15079 -0.3593855,0.33512 l -0.3308965,0.33511 0.2196322,0.22374 c 0.1207989,0.12307 0.2276783,0.22375 0.237511,0.22375 0.00984,0 0.072722,-0.0537 0.1397541,-0.11909 z M 8.516022,286.50623 8.6603811,286.3572 8.516022,286.20816 c -0.2123823,-0.21925 -0.2402336,-0.20197 -0.2402336,0.14904 0,0.351 0.02785,0.36827 0.2402336,0.14903 z m -1.6898604,-0.99663 0.010251,-0.53092 H 6.1280293 5.4196435 l 0.021365,0.18184 c 0.028735,0.24458 0.1484517,0.48965 0.3490807,0.7146 l 0.1661683,0.1863 0.4298235,-0.0106 0.4298249,-0.0105 z m 2.51286,0.16702 c 0.2079917,-0.21039 0.3780564,-0.399 0.3779164,-0.41915 -2.79e-4,-0.045 -0.2028125,-0.18586 -0.3440241,-0.23937 -0.057224,-0.0217 -0.3274865,-0.0394 -0.6005848,-0.0394 H 8.2757884 v 0.23207 0.23208 l 0.3040963,0.30815 c 0.1672517,0.16949 0.3213917,0.30814 0.3425308,0.30814 0.021138,0 0.2086126,-0.17212 0.4166061,-0.38251 z m 6.2902184,0.21208 c 0.182517,-0.19961 0.324086,-0.49118 0.357381,-0.73607 l 0.02364,-0.17395 H 15.30302 14.595776 v 0.51539 c 0,0.28346 0.01109,0.52657 0.02464,0.54024 0.01355,0.0136 0.211013,0.0248 0.438802,0.0248 h 0.414161 z m -5.54246,-2.28267 c 0,-0.0173 -0.377142,-0.26352 -0.8380947,-0.54723 l -0.8380954,-0.51583 -0.2614352,0.28107 c -0.14379,0.1546 -0.3146815,0.3715 -0.379759,0.48203 -0.2164072,0.36753 -0.3338229,0.33136 1.075303,0.33136 0.6831455,0 1.2420813,-0.0142 1.2420813,-0.0314 z m 3.732863,0.011 c 0,-0.10856 -0.395497,-0.6644 -0.654821,-0.92031 l -0.179375,-0.17702 -0.83027,0.5224 c -0.456648,0.28733 -0.835812,0.53883 -0.842588,0.55891 -0.0078,0.0234 0.441273,0.0365 1.247367,0.0365 0.692829,0 1.259687,-0.009 1.259687,-0.0206 z m -3.289355,-1.09741 v -0.81967 H 10.37101 c -0.203132,0 -0.6996032,0.12621 -1.0193023,0.25911 -0.2964381,0.12321 -0.5678497,0.29008 -0.5516291,0.33915 0.015327,0.0463 1.6238744,1.04056 1.6840124,1.04085 0.03556,1.3e-4 0.0462,-0.18843 0.0462,-0.81944 z m 1.327986,0.24866 c 0.39499,-0.24947 0.724597,-0.47377 0.732462,-0.49846 0.01915,-0.0602 -0.486745,-0.31302 -0.870064,-0.43492 -0.168553,-0.0537 -0.422182,-0.10829 -0.563625,-0.12155 l -0.257166,-0.0241 v 0.80018 c 0,0.44008 0.01065,0.8109 0.02366,0.82403 0.02792,0.0281 0.01532,0.0355 0.934731,-0.54519 z"
       id="path826"
       inkscape:connector-curvature="0" />
    <ellipse
       style="fill:none;fill-opacity:1;stroke:#008000;stroke-width:0.42306212;stroke-linecap:round;stroke-linejoin:round;stroke-miterlimit:4;stroke-dasharray:none;stroke-dashoffset:90;stroke-opacity:1"
       id="path828"
       cx="10.658927"
       cy="286.10855"
       rx="8.6615944"
       ry="8.489296" />
    <path
       style="fill:#008000;fill-opacity:1;stroke:#000000;stroke-width:0.03970395;stroke-linecap:round;stroke-linejoin:round;stroke-miterlimit:4;stroke-dasharray:none;stroke-dashoffset:90;stroke-opacity:1"
       d="m 9.9434458,295.8481 c -0.5531665,-0.0525 -0.7186767,-0.0728 -1.0510714,-0.12853 -1.7452221,-0.29292 -3.4504316,-1.0716 -4.8065213,-2.19492 -1.9936045,-1.65141 -3.22848184,-3.94636 -3.49984996,-6.50432 -0.0425436,-0.40101 -0.0422907,-1.47199 4.3602e-4,-1.85727 0.13067691,-1.17832 0.41768134,-2.18335 0.91768704,-3.21354 0.3389775,-0.69842 0.7008084,-1.27106 1.1864777,-1.87772 0.3186687,-0.39806 1.10391,-1.18263 1.4884098,-1.48715 1.5971233,-1.26489 3.3913573,-1.99603 5.4378147,-2.21585 0.5193116,-0.0558 1.5643216,-0.0563 2.0772796,-7.9e-4 2.383606,0.2574 4.524177,1.25588 6.168548,2.87736 1.582816,1.56079 2.548017,3.51662 2.837064,5.74885 0.05811,0.44886 0.0664,1.66764 0.01421,2.09107 -0.237329,1.92516 -0.91528,3.5523 -2.092078,5.02118 -0.346155,0.43206 -1.092386,1.17564 -1.518972,1.51358 -1.621819,1.28475 -3.533378,2.04116 -5.604734,2.21779 -0.285413,0.0243 -1.333608,0.0313 -1.5546932,0.009 z m 1.7767912,-0.45068 c 1.224607,-0.14539 2.291295,-0.45714 3.34455,-0.97744 2.298567,-1.13552 4.017329,-3.08878 4.808391,-5.46444 0.453157,-1.3609 0.575548,-2.7745 0.364077,-4.20507 -0.445902,-3.01646 -2.414367,-5.65338 -5.237791,-7.01646 -1.117583,-0.53956 -2.237232,-0.84589 -3.520392,-0.96319 -0.438755,-0.04 -1.6228241,-0.0176 -2.0582125,0.0391 -1.709115,0.22267 -3.3458562,0.87612 -4.6708248,1.86479 -1.5390458,1.14839 -2.6689294,2.68331 -3.2856674,4.46348 -0.339082,0.97872 -0.4921528,1.90509 -0.49124268,2.97298 8.8375e-4,1.03582 0.14742098,1.92481 0.47781348,2.89867 1.1104339,3.2731 4.0085003,5.70327 7.5063952,6.29448 0.3218512,0.0544 0.5172005,0.0786 1.0514357,0.12991 0.202558,0.0195 1.466316,-0.007 1.711468,-0.0369 z"
       id="path988"
       inkscape:connector-curvature="0" />
    <path
       style="fill:#008000;fill-opacity:1;stroke:#008000;stroke-width:0.02775998;stroke-linecap:round;stroke-linejoin:round;stroke-miterlimit:4;stroke-dasharray:none;stroke-dashoffset:90;stroke-opacity:1"
       d="m 10.142147,293.63461 c -1.2424853,-1.22406 -2.893997,-2.87936 -3.8385897,-3.84739 -0.983025,-1.00741 -0.999153,-1.02511 -1.0725438,-1.17654 -0.1195652,-0.24671 -0.1729273,-0.50591 -0.2061461,-1.00131 l -0.010419,-0.15531 0.1437715,-0.008 c 0.079074,-0.004 0.1489978,-0.0137 0.1553858,-0.0202 0.00638,-0.006 -0.026791,-0.0949 -0.07373,-0.19669 -0.132747,-0.28773 -0.1901151,-0.53926 -0.2014381,-0.88325 l -0.00934,-0.28381 0.1140791,-2.4e-4 c 0.1702431,-3.6e-4 0.2001223,-0.012 0.1879272,-0.0735 -0.00553,-0.0278 -0.049639,-0.1382 -0.098029,-0.24521 -0.1431689,-0.31663 -0.1994833,-0.5741 -0.1989887,-0.90982 1.501e-4,-0.10218 0.0079,-0.19791 0.017211,-0.21278 0.014566,-0.0232 0.1433061,-0.0283 0.9194487,-0.0361 0.5669627,-0.005 0.9086528,-0.0157 0.9190297,-0.0271 0.030755,-0.0336 0.1014556,-0.45765 0.079912,-0.47937 -0.027729,-0.0279 -0.6117912,-0.0504 -1.3391754,-0.0514 l -0.6098985,-7.7e-4 -0.011078,-0.0676 c -0.016196,-0.0988 -0.013956,-1.08569 0.00245,-1.08569 0.00767,0 0.090116,0.0466 0.1832243,0.10376 l 0.1692883,0.10376 0.00493,0.28551 0.00493,0.2855 0.2453254,-0.0127 c 0.1349292,-0.007 0.2507632,-0.0179 0.2574095,-0.0243 0.027858,-0.0268 0.264987,-0.63368 0.264987,-0.67821 0,-0.11895 -0.068235,-0.1722 -0.7507726,-0.58607 -0.2015465,-0.1222 -0.3704706,-0.2255 -0.3753864,-0.22955 -0.00491,-0.004 -0.012957,-0.44286 -0.017877,-0.97511 l -0.00893,-0.96773 0.1698174,0.007 c 0.0934,0.004 0.1778616,0.0147 0.1876932,0.024 0.011164,0.0106 0.021232,0.33289 0.026814,0.85827 l 0.00893,0.8412 0.1608799,0.10152 c 0.2766644,0.17468 0.4796158,0.28649 0.5200254,0.28649 0.02799,0 0.041795,-0.0139 0.049262,-0.0496 0.0057,-0.0273 0.016004,-0.50162 0.022882,-1.05414 l 0.012507,-1.00461 h 0.1668927 0.1668931 l 0.00155,0.59015 c 0.00177,0.67041 0.021096,1.4389 0.036568,1.45449 0.024504,0.0247 0.078575,-0.0235 0.219099,-0.19512 0.082248,-0.1005 0.2386802,-0.27999 0.347626,-0.39893 l 0.1980832,-0.21623 7.189e-4,-0.61718 7.188e-4,-0.61718 h 0.1673809 0.1673808 l 0.01267,0.40095 c 0.013949,0.44143 0.018969,0.48201 0.059589,0.48201 0.015266,0 0.1089123,-0.0499 0.2080996,-0.11086 0.099187,-0.061 0.2455372,-0.14995 0.3252214,-0.19773 0.079684,-0.0478 0.1553982,-0.0997 0.1682531,-0.11525 0.013606,-0.0165 0.029867,-0.11261 0.03891,-0.2299 0.00854,-0.11085 0.021315,-0.20705 0.02838,-0.2138 0.00707,-0.006 0.091275,-0.0151 0.1871401,-0.0183 l 0.1743004,-0.006 -1.41e-5,0.12056 c -7.6e-6,0.0664 0.00803,0.12559 0.017884,0.13172 0.00985,0.006 0.1566461,-0.0295 0.3262284,-0.0791 0.1695828,-0.0496 0.3425188,-0.0978 0.3843029,-0.10728 l 0.075971,-0.017 v 0.18654 0.18652 l -0.1295977,0.0375 c -0.9923836,0.28678 -1.8157782,0.8252 -2.4172456,1.58062 -0.2789713,0.35039 -0.5724392,0.81828 -0.6817297,1.08692 -0.04745,0.11664 -0.095666,0.27691 -0.096065,0.31934 -1.605e-4,0.0174 0.096587,0.0225 0.4247664,0.0225 h 0.4249785 l 0.08436,-0.1712 c 0.3218676,-0.65318 0.8276713,-1.20697 1.461005,-1.59962 0.4544222,-0.28173 1.060521,-0.49374 1.5819848,-0.55337 0.09831,-0.0113 0.196854,-0.0242 0.218976,-0.0287 l 0.04022,-0.008 v -0.54926 -0.54926 h 0.169818 0.169817 v 0.54926 0.54926 l 0.04022,0.008 c 0.02213,0.004 0.136748,0.0219 0.254726,0.0388 0.867004,0.12361 1.670099,0.51594 2.251043,1.09966 0.275226,0.27655 0.617351,0.75143 0.769032,1.06746 l 0.07061,0.14712 h 0.425433 c 0.393333,0 0.425419,-0.002 0.425241,-0.0315 -0.001,-0.15916 -0.339495,-0.81925 -0.602991,-1.17579 -0.465462,-0.62984 -1.04596,-1.11953 -1.738966,-1.46696 -0.259629,-0.13016 -0.645577,-0.27708 -0.911197,-0.34688 l -0.06256,-0.0164 -0.0051,-0.19447 c -0.005,-0.19169 -0.0045,-0.19432 0.03325,-0.18223 0.02109,0.006 0.116106,0.0346 0.211162,0.062 0.09505,0.0274 0.243312,0.0729 0.329458,0.10122 0.197428,0.0648 0.215627,0.0568 0.223068,-0.098 l 0.0053,-0.11075 h 0.175316 0.175318 l 0.0114,0.12162 c 0.0063,0.0669 0.01145,0.16723 0.01153,0.22295 l 1.01e-4,0.10132 0.344104,0.2086 c 0.189257,0.11473 0.357454,0.21365 0.373771,0.21983 0.04612,0.0175 0.05372,-0.0341 0.06672,-0.45304 0.0066,-0.21147 0.01973,-0.39206 0.02928,-0.40129 0.0095,-0.009 0.09176,-0.0194 0.182707,-0.0228 l 0.16536,-0.006 -9e-6,0.63885 -10e-6,0.63885 0.219447,0.22609 c 0.120697,0.12436 0.281759,0.30111 0.35792,0.39279 0.07616,0.0916 0.149417,0.16669 0.162794,0.16669 0.01338,0 0.02933,-0.0223 0.03545,-0.0496 0.0062,-0.0273 0.01633,-0.48947 0.02271,-1.02712 l 0.01158,-0.97758 h 0.164404 0.164404 l 0.01234,0.96856 c 0.01319,1.03556 0.01854,1.13975 0.05846,1.13975 0.0366,0 0.178902,-0.0747 0.457398,-0.24009 l 0.245789,-0.14596 v -0.86578 -0.86576 l 0.147474,0.005 c 0.08112,0.003 0.165572,0.009 0.187692,0.014 l 0.04022,0.008 v 0.75369 c 0,0.41452 0.005,0.83806 0.01121,0.94119 l 0.01121,0.1875 -0.587702,0.36543 c -0.323236,0.20099 -0.598774,0.37238 -0.612306,0.38088 -0.01962,0.0123 0.0075,0.0925 0.134067,0.39628 0.184938,0.44387 0.152909,0.41585 0.475507,0.41602 l 0.191708,1.1e-4 0.0049,-0.28292 0.0049,-0.28293 0.169819,-0.10418 c 0.09341,-0.0573 0.17585,-0.10429 0.183223,-0.1045 0.0074,-1.8e-4 0.01341,0.25915 0.01341,0.5763 v 0.57662 l -0.621174,7.7e-4 c -0.721198,0.001 -1.322688,0.0234 -1.349334,0.0503 -0.02399,0.0241 0.05424,0.44728 0.08923,0.48255 0.02036,0.0206 0.165337,0.0249 0.814492,0.0251 0.434344,8e-5 0.845066,0.005 0.912715,0.0118 l 0.122998,0.0117 -0.0098,0.26296 c -0.01168,0.31335 -0.05948,0.52999 -0.17953,0.81372 -0.09403,0.22224 -0.12996,0.33641 -0.111673,0.35486 0.0073,0.007 0.08098,0.0162 0.163744,0.0199 0.174702,0.007 0.159998,-0.0251 0.131947,0.29098 -0.03556,0.40068 -0.123798,0.74943 -0.233016,0.921 -0.0883,0.13871 -0.05989,0.17273 0.147278,0.1764 l 0.101317,0.002 -0.0089,0.21173 c -0.01555,0.3726 -0.07685,0.64803 -0.204186,0.9174 -0.07675,0.16235 -0.157586,0.26277 -0.539553,0.67015 -0.351701,0.37513 -4.90738,4.9401 -4.930031,4.9401 -0.0069,0 -0.265616,-0.24934 -0.574962,-0.55411 z m 0.750038,-0.13477 0.165685,-0.16635 v -1.59098 -1.59098 l -0.344104,0.005 -0.344103,0.005 -0.0046,1.58355 -0.0046,1.58356 0.16427,0.16887 c 0.09035,0.0929 0.172694,0.16886 0.182987,0.16886 0.01035,0 0.09327,-0.075 0.1844,-0.16634 z m -0.8954566,-0.67611 c 0.00713,-0.0372 0.013553,-0.63519 0.014225,-1.32895 0.0012,-1.3417 0.0017,-1.33349 -0.08366,-1.34573 -0.038327,-0.005 -0.040506,-0.0146 -0.045323,-0.18754 l -0.00499,-0.18179 0.5397716,-0.0119 c 0.296874,-0.006 0.668369,-0.0119 0.825545,-0.0119 h 0.285773 l -0.01147,0.16284 c -0.0079,0.11314 -0.02379,0.18876 -0.05183,0.24778 l -0.04036,0.0849 -0.0048,1.12624 c -0.0026,0.61943 0.0013,1.20327 0.009,1.29741 0.02047,0.25461 0.02583,0.25301 0.39903,-0.11911 l 0.302945,-0.30207 v -1.20867 -1.20866 l -0.290675,-0.29261 -0.290674,-0.29263 H 10.71256 9.876044 l -0.2671,0.2641 -0.2671001,0.26409 v 1.26501 1.26501 l 0.2945241,0.2909 c 0.1619887,0.15999 0.3064169,0.29088 0.3209506,0.29088 0.016302,0 0.031403,-0.026 0.039437,-0.0675 z m -1.0521103,-2.10474 0.00911,-1.0676 0.7392489,-0.74506 c 0.406588,-0.40977 0.739249,-0.75343 0.739249,-0.76366 0,-0.0106 -0.05219,-0.0708 -0.115977,-0.1345 l -0.115978,-0.11588 -0.9631474,0.96331 -0.963147,0.96334 -0.00234,0.71505 -0.00234,0.71504 0.1921619,0.18803 c 0.1056891,0.10345 0.2481534,0.23776 0.3165871,0.29855 0.1061466,0.0943 0.1268526,0.10615 0.1409492,0.0807 0.0093,-0.0167 0.020506,-0.49658 0.025633,-1.09738 z m 3.7527249,0.95744 c 0.08636,-0.0735 0.221371,-0.19938 0.300023,-0.27971 l 0.143005,-0.14602 0.0054,-0.71785 0.0054,-0.71787 -0.961071,-0.95809 -0.961071,-0.95811 -0.125686,0.12671 -0.125685,0.1267 0.744229,0.75228 0.744231,0.75228 0.0097,1.04516 c 0.0053,0.57483 0.01514,1.05933 0.02175,1.07668 0.0066,0.0174 0.01893,0.0315 0.02737,0.0315 0.0085,0 0.08601,-0.0602 0.172372,-0.13369 z m -4.8010752,-1.41161 c 0.00709,-0.27497 0.013469,-1.58046 0.014191,-2.90107 l 0.00132,-2.40114 h -0.339635 -0.339635 v 2.62661 2.62662 l 0.2547263,0.25377 c 0.2945133,0.2934 0.3511814,0.34049 0.3776619,0.31379 0.011195,-0.0113 0.023578,-0.21596 0.031376,-0.51858 z m 6.0123812,0.23549 0.277439,-0.2638 v -2.63694 -2.63696 H 13.846454 13.50682 l 0.0014,2.22994 c 0.0014,2.27618 0.01584,3.54578 0.04052,3.58603 0.02205,0.036 0.06109,0.006 0.359846,-0.27827 z m -7.0722771,-1.17321 0.00627,-0.39112 -0.4709328,-0.46917 c -0.2590131,-0.25804 -0.5103987,-0.50131 -0.558635,-0.54059 -0.08541,-0.0695 -0.091875,-0.0717 -0.2473045,-0.0778 l -0.1596016,-0.006 0.011851,0.10546 c 0.04784,0.42583 0.1517754,0.5825 0.8705617,1.3122 0.3995391,0.4056 0.5008251,0.49953 0.5189735,0.48123 0.016348,-0.0164 0.024274,-0.13028 0.028819,-0.41386 z m 8.3161591,-0.0876 c 0.694838,-0.70846 0.794915,-0.86071 0.84817,-1.29037 l 0.01281,-0.10345 h -0.141565 c -0.125016,0 -0.150853,0.006 -0.221034,0.0513 -0.04371,0.0281 -0.303813,0.27582 -0.578009,0.5503 l -0.498537,0.49907 0.0088,0.38414 c 0.0048,0.21129 0.01457,0.39356 0.02162,0.40508 0.02098,0.0342 0.08076,-0.02 0.547744,-0.49608 z m -6.7001341,-0.15452 c 0.2013242,-0.1777 1.4614388,-1.4387 1.4614388,-1.46247 0,-0.0333 -0.2155045,-0.22725 -0.2524738,-0.22725 -0.022704,0 -0.2792578,0.2439 -0.7137586,0.67857 l -0.6783171,0.67858 v 0.20291 c 0,0.18253 0.00851,0.25993 0.028614,0.25993 0.00381,0 0.073326,-0.0587 0.1544987,-0.13027 z m 4.6966381,-0.13403 2.99e-4,-0.21926 -0.630111,-0.6214 c -0.720733,-0.71078 -0.732856,-0.72177 -0.779748,-0.70677 -0.05313,0.017 -0.216813,0.19099 -0.216813,0.23048 0,0.0415 0.322086,0.3768 0.87632,0.91224 0.560047,0.54103 0.715586,0.6784 0.734346,0.64855 0.0085,-0.0135 0.01558,-0.12326 0.01572,-0.24384 z m -2.07148,-0.0907 c 0.0166,-0.0167 0.01422,-0.0327 -0.01065,-0.0709 -0.05028,-0.0773 -0.333352,-0.36703 -0.358668,-0.36703 -0.0267,0 -0.259385,0.24847 -0.325529,0.34761 -0.07364,0.11038 -0.04791,0.11823 0.374895,0.11452 0.205104,-0.002 0.305261,-0.009 0.319948,-0.0242 z m -4.2497854,-0.59557 c 0.00609,-0.0372 0.011168,-0.14664 0.011278,-0.24328 l 2.001e-4,-0.1757 -0.2279132,3.1e-4 c -0.125352,1.1e-4 -0.2392832,0.007 -0.2531805,0.0164 -0.019897,0.0127 -0.00294,0.0417 0.079755,0.13671 0.1211028,0.13906 0.3294319,0.3323 0.3587789,0.3328 0.011001,2.2e-4 0.02499,-0.03 0.031084,-0.0672 z m 7.9671474,-0.0743 c 0.205168,-0.19172 0.298352,-0.307 0.265257,-0.32813 -0.01376,-0.008 -0.127558,-0.0161 -0.25291,-0.0162 l -0.227913,-3.1e-4 v 0.15968 c 0,0.20057 0.0167,0.32686 0.04323,0.32686 0.01127,0 0.08882,-0.0639 0.172339,-0.1419 z m -6.3057069,-0.19947 0.1644002,-0.16117 -0.1072535,-0.10975 c -0.1472096,-0.15064 -0.2387351,-0.21375 -0.2602597,-0.17945 -0.017994,0.0286 -0.022637,0.50672 -0.00555,0.57101 0.00593,0.0223 0.018311,0.0405 0.027516,0.0405 0.00921,0 0.090719,-0.0725 0.1811395,-0.16117 z m 4.6492469,0.11465 c 0.006,-0.0157 0.01084,-0.14189 0.01084,-0.28049 0,-0.37147 -0.02818,-0.39627 -0.219247,-0.19307 -0.165874,0.17641 -0.167624,0.19146 -0.03782,0.3255 0.0954,0.0985 0.194117,0.17633 0.223868,0.1765 0.0064,3e-5 0.01637,-0.0127 0.02234,-0.0284 z m -2.218759,-0.42635 c 0.296042,-0.2696 0.531434,-0.51674 0.531434,-0.55794 0,-0.0225 -0.06323,-0.10218 -0.16088,-0.20257 l -0.160879,-0.16538 v -0.57623 c 0,-0.64157 0.0071,-0.69658 0.116636,-0.9065 0.139439,-0.26718 0.300955,-0.41791 0.625198,-0.58342 l 0.178756,-0.0912 1.043192,-0.0138 c 0.573757,-0.007 1.04762,-0.0183 1.05303,-0.0238 0.0089,-0.009 -0.02258,-0.13975 -0.09676,-0.40212 l -0.02675,-0.0946 H 10.710066 7.3974567 l -0.054944,0.20272 c -0.030218,0.11149 -0.060162,0.22502 -0.066537,0.25228 l -0.011592,0.0495 0.1047224,0.001 c 0.057598,7.7e-4 0.5310538,0.007 1.0521255,0.0146 l 0.9474037,0.013 0.1865114,0.0939 c 0.3135653,0.15783 0.4671113,0.3002 0.6058033,0.56171 0.124999,0.23571 0.128276,0.25914 0.128276,0.91723 v 0.58634 l -0.163455,0.15386 c -0.1368358,0.1288 -0.1614493,0.16023 -0.1511332,0.19301 0.017371,0.0552 0.6950052,0.74442 0.7318692,0.74442 0.01669,0 0.112623,-0.0749 0.213196,-0.16654 z m -1.7342905,-0.36342 c 0.1155207,-0.10821 0.2100373,-0.20544 0.2100373,-0.21606 0,-0.0244 -0.4311858,-0.46131 -0.4553093,-0.46131 -0.00985,0 -0.12057,0.10324 -0.2460616,0.2295 l -0.2281664,0.2295 0.226947,0.22928 c 0.1914831,0.19346 0.2312889,0.22591 0.2547313,0.20756 0.015281,-0.0119 0.122301,-0.11026 0.2378217,-0.21847 z m 3.3849565,0.15033 c 0.03823,-0.0303 0.184117,-0.1648 0.324218,-0.2987 l 0.254727,-0.24345 v -0.98351 -0.98351 l -0.451359,0.0113 c -0.248246,0.006 -0.498179,0.0192 -0.555406,0.029 -0.249827,0.0428 -0.460556,0.21131 -0.579175,0.4631 -0.07875,0.16715 -0.09981,0.32515 -0.04901,0.36765 0.02478,0.0208 0.146841,0.0296 0.591771,0.0429 l 0.560542,0.0167 v 0.17715 0.17715 h -0.589896 -0.589894 v 0.14145 c 0,0.12935 0.0048,0.14823 0.05568,0.22074 0.111027,0.15811 0.892157,0.9172 0.943821,0.9172 0.0079,0 0.04576,-0.0248 0.08399,-0.0553 z m -5.8526072,-0.0493 c 0.013548,-0.0136 -0.1201389,-0.16099 -0.4599846,-0.50693 l -0.4790836,-0.4877 H 5.592189 5.4056899 l 0.012773,0.11264 c 0.038297,0.3377 0.1557222,0.59019 0.3905887,0.83982 l 0.073851,0.0785 0.407878,-0.008 c 0.2541998,-0.005 0.4150742,-0.0158 0.4269769,-0.0278 z m 8.9083872,-0.062 c 0.17742,-0.19787 0.307056,-0.45952 0.355672,-0.71789 0.0437,-0.23225 0.05659,-0.21464 -0.156946,-0.21464 h -0.184523 l -0.467933,0.47568 c -0.257365,0.26161 -0.467934,0.48827 -0.467934,0.50369 0,0.0332 0.07053,0.0391 0.530141,0.0443 l 0.306696,0.003 z m -8.7894868,-0.71719 0.00635,-0.21534 H 6.6646065 c -0.1953164,0 -0.2901259,0.013 -0.2901259,0.0399 0,0.009 0.092558,0.1115 0.2056837,0.22649 0.1639717,0.16668 0.2101921,0.20453 0.2279134,0.18668 0.014438,-0.0146 0.024456,-0.0978 0.02858,-0.23775 z m 8.0421098,0.0126 c 0.09094,-0.0948 0.165348,-0.17978 0.165348,-0.18889 0,-0.0262 -0.09671,-0.0391 -0.290446,-0.0391 h -0.178724 l 0.0075,0.21202 c 0.0041,0.11661 0.01372,0.22217 0.02134,0.23457 0.01998,0.0327 0.07899,-0.0144 0.274989,-0.21859 z m -5.05257,0.0303 0.1233899,-0.12009 -0.00183,-0.27184 c -0.00265,-0.37134 -0.019734,-0.59162 -0.046738,-0.60061 -0.0251,-0.008 -0.6842613,0.63842 -0.6842613,0.6714 0,0.0324 0.423731,0.44122 0.4572914,0.44122 0.015852,0 0.08435,-0.0541 0.1522152,-0.12008 z m -1.3086352,-0.17791 0.153924,-0.15384 -0.1485345,-0.14349 c -0.1580343,-0.15267 -0.2219628,-0.17982 -0.2423985,-0.10292 -0.018187,0.0685 -0.012421,0.48224 0.00724,0.51926 0.010183,0.0191 0.031406,0.0348 0.047176,0.0348 0.015769,0 0.097938,-0.0693 0.1825955,-0.15385 z m -1.7064071,-0.46111 c 0.00336,-0.004 0.012,-0.24799 0.019163,-0.54283 l 0.013022,-0.5361 H 6.1245164 5.4056925 l 0.012187,0.11264 c 0.035611,0.32912 0.1321761,0.53517 0.3968362,0.84672 l 0.1218174,0.14339 0.4342426,-0.008 c 0.2388333,-0.004 0.4370059,-0.0116 0.4403838,-0.0153 z m 2.5247671,-0.36504 c 0.2097055,-0.21191 0.3812837,-0.39779 0.3812837,-0.41305 0,-0.0402 -0.1348592,-0.15036 -0.2603906,-0.21267 -0.097467,-0.0484 -0.1345691,-0.0555 -0.3664485,-0.0706 -0.1419002,-0.009 -0.3846936,-0.017 -0.5395408,-0.0172 l -0.2815394,-3.7e-4 v 0.24803 0.24801 l 0.2279128,0.22604 c 0.2980209,0.29555 0.3904136,0.37711 0.4271862,0.37711 0.016639,0 0.2018307,-0.17339 0.4115366,-0.38531 z m 6.2427472,0.2745 c 0.25465,-0.28213 0.384439,-0.55371 0.422829,-0.88478 l 0.01202,-0.10365 h -0.717082 -0.717081 l 0.0022,0.40996 c 0.0012,0.22546 0.0072,0.46638 0.01341,0.53535 0.01018,0.11411 0.01521,0.12652 0.05587,0.13786 0.02458,0.007 0.220886,0.0132 0.436238,0.0143 l 0.391549,0.002 0.100024,-0.11081 z m -5.511907,-2.33574 c 0.02837,-0.016 -7.94e-4,-0.0409 -0.2074308,-0.17727 -0.1322423,-0.0873 -0.513938,-0.32758 -0.8482104,-0.53408 l -0.6077683,-0.37548 -0.1298349,0.14041 c -0.2355407,0.25473 -0.4026574,0.46219 -0.5260393,0.65303 -0.066941,0.10355 -0.1217116,0.20188 -0.1217116,0.21853 0,0.0463 0.043795,0.0731 0.1471396,0.0897 0.1369255,0.022 2.2527547,0.008 2.2938557,-0.0149 z m 3.491155,0.0201 c 0.31348,-0.0136 0.300543,7.7e-4 0.181322,-0.20439 -0.144574,-0.24898 -0.553919,-0.75572 -0.703154,-0.87045 l -0.06287,-0.0484 -0.533133,0.33574 c -0.88789,0.55913 -1.162173,0.74545 -1.127492,0.76589 0.04232,0.0249 1.784577,0.0417 2.24532,0.0216 z m -3.042825,-0.36203 c 0.0071,-0.0372 0.01353,-0.40814 0.01423,-0.82441 l 0.0012,-0.75682 -0.159832,0.005 c -0.198758,0.006 -0.4993246,0.0717 -0.8143858,0.17825 -0.3495226,0.1182 -0.7686482,0.34249 -0.7686482,0.41132 0,0.0539 1.601476,1.05069 1.692898,1.05376 0.01184,3.8e-4 0.02738,-0.0297 0.03452,-0.0669 z m 0.631377,-0.0529 c 0.48916,-0.29369 1.385858,-0.8791 1.431564,-0.93462 0.0333,-0.0404 -0.01034,-0.0786 -0.211006,-0.18413 -0.452903,-0.23833 -0.884911,-0.36959 -1.352275,-0.41091 l -0.141435,-0.0125 0.01247,0.79548 c 0.0069,0.43752 0.01708,0.80755 0.02269,0.82231 0.01708,0.0449 0.06013,0.0312 0.237984,-0.0757 z"
       id="path853"
       inkscape:connector-curvature="0" />
    <path
       style="fill:#008000;fill-opacity:1;stroke:#000000;stroke-width:0.0377734;stroke-linecap:round;stroke-linejoin:round;stroke-miterlimit:4;stroke-dasharray:none;stroke-dashoffset:90;stroke-opacity:1"
       d="m 10.278782,294.79301 c -2.2835715,-0.12257 -4.2986176,-0.99375 -5.8766178,-2.54069 -0.7263037,-0.71201 -1.2469882,-1.42609 -1.7021556,-2.33439 -0.5372767,-1.07215 -0.8258544,-2.17431 -0.8867149,-3.3866 -0.1431503,-2.85144 1.1381447,-5.56243 3.4601367,-7.32103 1.2712038,-0.96276 2.8104108,-1.56318 4.486938,-1.75027 0.3632766,-0.0405 1.4054036,-0.0405 1.7897586,-3e-5 1.584346,0.16706 3.06289,0.7236 4.332092,1.63068 0.756963,0.54098 1.505729,1.29436 2.067264,2.08 0.863745,1.20846 1.410535,2.71034 1.53868,4.22632 0.03709,0.43879 0.0169,1.41928 -0.03722,1.80841 -0.221206,1.59009 -0.823325,3.00415 -1.805291,4.23967 -1.503499,1.8917 -3.698048,3.07662 -6.13255,3.31121 -0.297038,0.0286 -0.997189,0.0494 -1.234316,0.0368 z m 1.579924,-0.47877 c 0.722836,-0.11043 1.359353,-0.27852 1.960024,-0.51762 2.751274,-1.09515 4.711199,-3.49107 5.186204,-6.3399 0.09185,-0.55086 0.120102,-0.9831 0.103453,-1.58268 -0.02462,-0.88656 -0.151572,-1.59071 -0.436921,-2.42343 -0.391655,-1.14297 -0.996463,-2.12521 -1.856978,-3.01587 -0.200268,-0.20729 -0.364124,-0.38966 -0.364124,-0.40528 0,-0.0156 -0.01493,-0.0284 -0.03318,-0.0284 -0.01826,0 -0.154339,-0.10208 -0.302408,-0.22681 -0.501751,-0.42276 -1.280274,-0.90976 -1.899974,-1.18855 -1.131856,-0.5092 -2.296369,-0.75723 -3.55337,-0.75684 -0.9849669,3e-4 -1.78731,0.12614 -2.6850495,0.42112 -1.8540811,0.6092 -3.3982698,1.79305 -4.4608097,3.41983 -0.7120246,1.09014 -1.1541556,2.35674 -1.2838974,3.67805 -0.037247,0.37932 -0.030796,1.19657 0.012744,1.61451 0.1701419,1.63324 0.8426563,3.19578 1.9147125,4.44869 1.2369928,1.44567 2.9072527,2.42947 4.7704423,2.80983 0.2567956,0.0524 0.5196103,0.0913 1.0036129,0.14857 0.047522,0.005 0.4252219,0.007 0.8393349,0.003 0.606038,-0.006 0.817951,-0.0172 1.086197,-0.0582 z"
       id="path990"
       inkscape:connector-curvature="0" />
    <path
       style="fill:#008000;fill-opacity:1;stroke:#000000;stroke-width:0.03600223;stroke-linecap:round;stroke-linejoin:round;stroke-miterlimit:4;stroke-dasharray:none;stroke-dashoffset:90;stroke-opacity:1;filter:url(#filter1017)"
       d="M 10.539535,295.17015 C 8.354277,295.0538 6.425983,294.22679 4.91592,292.7583 c -0.695035,-0.6759 -1.193303,-1.35377 -1.628874,-2.21601 -0.514146,-1.01778 -0.7903,-2.06405 -0.84854,-3.21486 -0.136987,-2.70684 1.089145,-5.28035 3.31117,-6.94977 1.216475,-0.91395 2.689416,-1.48392 4.293765,-1.66152 0.347636,-0.0385 1.344898,-0.0385 1.712705,-2e-5 1.516136,0.15858 2.931025,0.6869 4.145585,1.54798 0.724374,0.51355 1.440904,1.22872 1.978264,1.97452 0.826558,1.14718 1.349808,2.5729 1.472436,4.012 0.03549,0.41654 0.01618,1.34731 -0.03562,1.7167 -0.211682,1.50946 -0.787878,2.85181 -1.727568,4.02467 -1.438771,1.79578 -3.538839,2.92061 -5.86853,3.1433 -0.284249,0.0272 -0.954258,0.0469 -1.181176,0.0349 z m 1.511905,-0.45449 c 0.691717,-0.10483 1.30083,-0.2644 1.87564,-0.49137 2.632826,-1.03962 4.508371,-3.31404 4.962926,-6.0184 0.08789,-0.52293 0.114931,-0.93325 0.099,-1.50242 -0.02356,-0.8416 -0.145047,-1.51004 -0.418111,-2.30054 -0.374793,-1.085 -0.953563,-2.01744 -1.777031,-2.86293 -0.191646,-0.19677 -0.348447,-0.36989 -0.348447,-0.38472 0,-0.0148 -0.01429,-0.027 -0.03176,-0.027 -0.01747,0 -0.147694,-0.0969 -0.289389,-0.21532 -0.480149,-0.40131 -1.225155,-0.86362 -1.818175,-1.12827 -1.083127,-0.48338 -2.197505,-0.71883 -3.400389,-0.71846 -0.942562,2.9e-4 -1.710362,0.11974 -2.569452,0.39976 -1.774259,0.57831 -3.251966,1.70212 -4.268762,3.24641 -0.68137,1.03486 -1.104466,2.23723 -1.228622,3.49153 -0.03564,0.36009 -0.02947,1.13589 0.01219,1.53264 0.162817,1.55042 0.806378,3.03371 1.832279,4.22309 1.183738,1.37236 2.782089,2.30627 4.565064,2.66734 0.24574,0.0498 0.49724,0.0867 0.960405,0.14104 0.04548,0.005 0.406915,0.007 0.8032,0.003 0.579946,-0.006 0.782736,-0.0163 1.039434,-0.0552 z"
       id="path990-8"
       inkscape:connector-curvature="0"
       transform="matrix(1.0449892,0,0,1.05342,-0.73491871,-16.145341)" />
    <path
       style="fill:#008000;fill-opacity:1;stroke:#000000;stroke-width:0.03784225;stroke-linecap:round;stroke-linejoin:round;stroke-miterlimit:4;stroke-dasharray:none;stroke-dashoffset:90;stroke-opacity:1;filter:url(#filter1040)"
       d="m 10.218635,296.17184 c -0.529351,-0.0499 -0.687735,-0.0691 -1.00582,-0.12202 -1.670086,-0.27806 -3.301882,-1.01726 -4.599589,-2.08361 -1.907775,-1.56766 -3.089488,-3.74624 -3.349174,-6.17448 -0.04071,-0.38068 -0.04047,-1.39734 4.18e-4,-1.76308 0.125051,-1.11857 0.399699,-2.07263 0.878178,-3.05059 0.324384,-0.66299 0.670637,-1.20659 1.135397,-1.78249 0.30495,-0.37787 1.056384,-1.12266 1.424331,-1.41174 1.528363,-1.20075 3.245351,-1.8948 5.203704,-2.10348 0.496953,-0.053 1.496975,-0.0534 1.987848,-7.5e-4 2.280987,0.24435 4.329401,1.19219 5.902978,2.73145 1.514672,1.48164 2.438319,3.33828 2.714922,5.45732 0.05561,0.4261 0.06354,1.58307 0.01359,1.98502 -0.227111,1.82754 -0.875875,3.37217 -2.002008,4.76655 -0.331253,0.41015 -1.045357,1.11603 -1.453578,1.43683 -1.551995,1.2196 -3.381258,1.93765 -5.363437,2.10532 -0.273126,0.0231 -1.276193,0.0297 -1.487761,0.009 z m 1.700298,-0.42783 c 1.171884,-0.13802 2.192649,-0.43396 3.200559,-0.92788 2.199608,-1.07793 3.844373,-2.93214 4.601379,-5.18733 0.433647,-1.29188 0.550769,-2.6338 0.348402,-3.99182 -0.426705,-2.86349 -2.310423,-5.36669 -5.012292,-6.66066 -1.069468,-0.51219 -2.140914,-0.80299 -3.368831,-0.91434 -0.419865,-0.038 -1.552959,-0.0167 -1.969602,0.0371 -1.635534,0.21138 -3.20181,0.83169 -4.469735,1.77022 -1.472786,1.09016 -2.554026,2.54724 -3.144212,4.23713 -0.324484,0.9291 -0.470964,1.80849 -0.470094,2.82222 8.47e-4,0.9833 0.141075,1.8272 0.457243,2.75168 1.062627,3.10712 3.835925,5.41405 7.183228,5.97528 0.307994,0.0516 0.494933,0.0746 1.006168,0.12332 0.193837,0.0185 1.403188,-0.007 1.637787,-0.035 z"
       id="path988-2"
       inkscape:connector-curvature="0"
       transform="matrix(1.0449892,0,0,1.05342,-0.73491871,-16.145341)" />
    <path
       style="fill:#008000;fill-opacity:1;stroke:#000000;stroke-width:0.03421191;stroke-linecap:round;stroke-linejoin:round;stroke-miterlimit:4;stroke-dasharray:none;stroke-dashoffset:90;stroke-opacity:1;filter:url(#filter1071)"
       d="m 10.39271,294.08049 c -1.1889942,-1.16199 -2.7694042,-2.73335 -3.6733302,-3.65229 -0.940703,-0.95633 -0.956137,-0.97313 -1.026368,-1.11688 -0.114418,-0.2342 -0.165482,-0.48025 -0.197271,-0.95053 l -0.01,-0.14744 0.137582,-0.008 c 0.07567,-0.004 0.142583,-0.013 0.148696,-0.0191 0.0061,-0.006 -0.02564,-0.0901 -0.07056,-0.18671 -0.127032,-0.27314 -0.18193,-0.51192 -0.192766,-0.83846 l -0.0089,-0.26942 0.109168,-2.3e-4 c 0.162914,-3.4e-4 0.191506,-0.0114 0.179836,-0.0698 -0.0053,-0.0264 -0.0475,-0.13119 -0.09381,-0.23278 -0.137005,-0.30057 -0.190895,-0.54499 -0.190421,-0.86368 1.43e-4,-0.097 0.0076,-0.18788 0.01647,-0.20199 0.01394,-0.022 0.137136,-0.0269 0.879864,-0.0342 0.542553,-0.005 0.869533,-0.0149 0.879463,-0.0257 0.02943,-0.0319 0.09709,-0.43444 0.07647,-0.45506 -0.02654,-0.0265 -0.585452,-0.0478 -1.281521,-0.0488 l -0.583641,-7.2e-4 -0.0106,-0.0642 c -0.0155,-0.0938 -0.01336,-1.03064 0.0023,-1.03064 0.0073,0 0.08624,0.0443 0.175336,0.0985 l 0.162001,0.0985 0.0047,0.27103 0.0047,0.27102 0.234763,-0.0121 c 0.12912,-0.007 0.239967,-0.017 0.246328,-0.0231 0.02666,-0.0254 0.253578,-0.60154 0.253578,-0.64382 0,-0.11291 -0.0653,-0.16347 -0.71845,-0.55634 -0.192869,-0.11601 -0.354521,-0.21407 -0.359225,-0.21792 -0.0047,-0.004 -0.0124,-0.4204 -0.01711,-0.92566 l -0.0085,-0.91865 0.162506,0.007 c 0.08938,0.004 0.170205,0.0139 0.179613,0.0228 0.01068,0.0101 0.02032,0.31601 0.02566,0.81474 l 0.0085,0.79855 0.153954,0.0964 c 0.264753,0.16582 0.458967,0.27196 0.497637,0.27196 0.02679,0 0.04,-0.0132 0.04714,-0.0471 0.0055,-0.0259 0.01531,-0.47618 0.0219,-1.00069 l 0.01197,-0.95366 h 0.159707 0.159708 l 0.0015,0.56022 c 0.0017,0.63641 0.02019,1.36593 0.03499,1.38073 0.02345,0.0235 0.07519,-0.0223 0.209667,-0.18522 0.07871,-0.0954 0.228405,-0.2658 0.332661,-0.3787 l 0.189555,-0.20527 6.88e-4,-0.58588 6.88e-4,-0.58588 h 0.160173 0.160175 l 0.01212,0.38061 c 0.01335,0.41905 0.01815,0.45758 0.05702,0.45758 0.01461,0 0.104223,-0.0474 0.19914,-0.10525 0.09492,-0.0579 0.234966,-0.14235 0.31122,-0.1877 0.07625,-0.0453 0.148708,-0.0946 0.16101,-0.1094 0.01302,-0.0157 0.02858,-0.1069 0.03724,-0.21825 0.0082,-0.10522 0.0204,-0.19655 0.02716,-0.20296 0.0068,-0.006 0.08734,-0.0143 0.179083,-0.0174 l 0.166796,-0.006 -1.3e-5,0.11445 c -8e-6,0.063 0.0077,0.11922 0.01711,0.12504 0.0094,0.006 0.149902,-0.028 0.312183,-0.0751 0.162282,-0.0471 0.327773,-0.0929 0.367758,-0.10184 l 0.0727,-0.0161 v 0.17707 0.17707 l -0.124018,0.0356 c -0.949658,0.27224 -1.737604,0.78335 -2.313177,1.50047 -0.266961,0.33262 -0.547794,0.77678 -0.65238,1.0318 -0.04541,0.11072 -0.09155,0.26287 -0.09193,0.30315 -1.53e-4,0.0165 0.09243,0.0214 0.40648,0.0214 h 0.406682 l 0.08073,-0.16252 c 0.30801,-0.62005 0.792038,-1.14576 1.398105,-1.5185 0.434859,-0.26744 1.0148642,-0.4687 1.5138782,-0.5253 0.09408,-0.0107 0.188379,-0.023 0.209548,-0.0273 l 0.03849,-0.008 v -0.52141 -0.52141 h 0.162507 0.162506 v 0.52141 0.52141 l 0.03849,0.008 c 0.02117,0.004 0.130861,0.0208 0.24376,0.0368 0.829677,0.11735 1.598197,0.48978 2.15413,1.0439 0.263377,0.26252 0.590773,0.71333 0.735924,1.01333 l 0.06757,0.13966 h 0.407118 c 0.376398,0 0.407103,-0.002 0.406933,-0.0299 -9.78e-4,-0.15108 -0.324879,-0.7777 -0.577031,-1.11616 -0.445423,-0.5979 -1.000929,-1.06276 -1.664099,-1.39257 -0.248452,-0.12356 -0.617783,-0.26303 -0.871969,-0.32929 l -0.05987,-0.0156 -0.0049,-0.18462 c -0.0048,-0.18196 -0.0043,-0.18446 0.03181,-0.17298 0.02018,0.006 0.111107,0.0329 0.202071,0.0589 0.09096,0.026 0.232837,0.0692 0.315274,0.0961 0.188928,0.0615 0.206344,0.0539 0.213464,-0.093 l 0.0051,-0.10513 h 0.167769 0.16777 l 0.0109,0.11546 c 0.006,0.0635 0.01096,0.15875 0.01103,0.21164 l 9.6e-5,0.0962 0.32929,0.19802 c 0.181108,0.10891 0.342064,0.20282 0.357679,0.20869 0.04413,0.0166 0.05141,-0.0324 0.06384,-0.43007 0.0063,-0.20075 0.01888,-0.37218 0.02802,-0.38094 0.0091,-0.009 0.08781,-0.0185 0.174841,-0.0217 l 0.158241,-0.006 -9e-6,0.60646 -9e-6,0.60645 0.209999,0.21463 c 0.1155,0.11805 0.269629,0.28584 0.342511,0.37286 0.07288,0.087 0.142984,0.15824 0.155785,0.15824 0.0128,0 0.02806,-0.0212 0.03392,-0.0471 0.0059,-0.0259 0.01563,-0.46464 0.02173,-0.97503 l 0.01108,-0.928 h 0.157326 0.157326 l 0.01181,0.91944 c 0.01262,0.98304 0.01774,1.08195 0.05594,1.08195 0.03502,0 0.171199,-0.0709 0.437706,-0.22791 l 0.235203,-0.13856 v -0.82187 -0.82186 l 0.141125,0.005 c 0.07762,0.003 0.158443,0.009 0.179612,0.0133 l 0.03849,0.008 v 0.71547 c 0,0.3935 0.0048,0.79556 0.01073,0.89346 l 0.01073,0.17799 -0.5624,0.3469 c -0.30932,0.1908 -0.572995,0.3535 -0.585944,0.36157 -0.01878,0.0117 0.0072,0.0878 0.128294,0.37618 0.176976,0.42136 0.146327,0.39476 0.455036,0.39492 l 0.183454,1.1e-4 0.0047,-0.26858 0.0047,-0.26857 0.162507,-0.0989 c 0.08938,-0.0544 0.168279,-0.099 0.175335,-0.0992 0.0071,-1.8e-4 0.01283,0.246 0.01283,0.54707 v 0.54738 l -0.594432,7.4e-4 c -0.690149,10e-4 -1.265743,0.0222 -1.291242,0.0477 -0.02296,0.0229 0.05191,0.4246 0.08539,0.45808 0.01949,0.0195 0.158219,0.0237 0.779427,0.0238 0.415644,7e-5 0.808684,0.005 0.87342,0.0112 l 0.117704,0.0111 -0.0094,0.24963 c -0.01118,0.29746 -0.05692,0.50311 -0.1718,0.77245 -0.08998,0.21097 -0.124365,0.31935 -0.106865,0.33687 0.007,0.007 0.0775,0.0154 0.156694,0.0188 0.167181,0.007 0.15311,-0.0238 0.126267,0.27622 -0.03403,0.38037 -0.118469,0.71143 -0.222985,0.8743 -0.0845,0.13168 -0.05732,0.16397 0.140937,0.16745 l 0.09695,0.002 -0.0085,0.20099 c -0.01488,0.35371 -0.07354,0.61517 -0.195395,0.87088 -0.07344,0.15411 -0.150802,0.24944 -0.516323,0.63617 -0.336561,0.3561 -4.696107,4.68958 -4.717783,4.68958 -0.0066,0 -0.254181,-0.2367 -0.550209,-0.52601 z m 0.717747,-0.12795 0.158552,-0.1579 v -1.51031 -1.5103 l -0.32929,0.005 -0.329289,0.005 -0.0044,1.50325 -0.0044,1.50326 0.157198,0.1603 c 0.08646,0.0882 0.165259,0.1603 0.175109,0.1603 0.0099,0 0.08926,-0.0711 0.176461,-0.1579 z m -0.856905,-0.64182 c 0.0068,-0.0353 0.01297,-0.60298 0.01361,-1.26156 0.0012,-1.27365 0.0017,-1.26586 -0.08006,-1.27748 -0.03668,-0.005 -0.03876,-0.0138 -0.04337,-0.17803 l -0.0048,-0.17257 0.516533,-0.0113 c 0.284093,-0.006 0.639594,-0.0113 0.790003,-0.0113 h 0.27347 l -0.01097,0.15458 c -0.0076,0.1074 -0.02276,0.17918 -0.0496,0.23521 l -0.03863,0.0806 -0.0046,1.06912 c -0.0025,0.58802 0.0013,1.14225 0.0086,1.23163 0.01959,0.24169 0.02472,0.24017 0.381851,-0.11308 l 0.289903,-0.28675 v -1.14737 -1.14738 l -0.278162,-0.27777 -0.27816,-0.27778 h -0.800632 -0.800502 l -0.2556012,0.2507 -0.255601,0.2507 v 1.20086 1.20086 l 0.281844,0.27614 c 0.1550152,0.15188 0.2932252,0.27614 0.3071332,0.27614 0.0156,0 0.03005,-0.0246 0.03774,-0.0641 z m -1.0068152,-1.998 0.0087,-1.01347 0.707423,-0.70727 c 0.3890832,-0.389 0.7074232,-0.71522 0.7074232,-0.72494 0,-0.01 -0.04994,-0.0672 -0.110984,-0.12768 l -0.110985,-0.11 -0.9216822,0.91447 -0.921681,0.91448 -0.0023,0.67878 -0.0023,0.67879 0.183889,0.17849 c 0.101138,0.0982 0.237469,0.2257 0.302957,0.28341 0.101576,0.0895 0.121391,0.10077 0.134881,0.0767 0.0089,-0.0159 0.01962,-0.4714 0.02453,-1.04173 z m 3.5911622,0.90889 c 0.08264,-0.0698 0.21184,-0.18928 0.287106,-0.26553 l 0.136848,-0.13862 0.0052,-0.68145 0.0052,-0.68146 -0.919695,-0.90951 -0.919695,-0.90951 -0.120275,0.12027 -0.120274,0.12028 0.712189,0.71413 0.71219,0.71414 0.0093,0.99215 c 0.0051,0.54568 0.01449,1.00561 0.02081,1.02208 0.0063,0.0165 0.01811,0.0299 0.02619,0.0299 0.0081,0 0.08231,-0.0571 0.164952,-0.12691 z m -4.5943782,-1.34003 c 0.0068,-0.26103 0.01289,-1.50031 0.01358,-2.75396 l 0.0013,-2.27937 h -0.325046 -0.325013 v 2.49341 2.49342 l 0.24376,0.2409 c 0.281834,0.27853 0.336062,0.32322 0.361403,0.29788 0.01071,-0.0107 0.02256,-0.20501 0.03003,-0.49228 z m 5.7535342,0.22355 0.265495,-0.25043 v -2.50322 -2.50323 h -0.325012 -0.325013 l 0.0014,2.11686 c 0.0014,2.16075 0.01516,3.36597 0.03877,3.40418 0.02111,0.0341 0.05846,0.006 0.344354,-0.26416 z m -6.7677992,-1.11372 0.006,-0.37129 -0.450658,-0.44537 c -0.247862,-0.24495 -0.488425,-0.47589 -0.534585,-0.51318 -0.08173,-0.066 -0.08792,-0.068 -0.236657,-0.0738 l -0.152731,-0.006 0.01134,0.10012 c 0.04578,0.40423 0.145242,0.55295 0.833082,1.24565 0.382338,0.38503 0.479264,0.47419 0.496631,0.45682 0.01564,-0.0156 0.02323,-0.12367 0.02758,-0.39287 z m 7.9581302,-0.0831 c 0.664923,-0.67253 0.760691,-0.81706 0.811653,-1.22493 l 0.01226,-0.0982 h -0.13547 c -0.119634,0 -0.144358,0.006 -0.211518,0.0487 -0.04183,0.0267 -0.290733,0.26183 -0.553123,0.5224 l -0.477074,0.47376 0.0084,0.36466 c 0.0046,0.20057 0.01394,0.3736 0.02069,0.38453 0.02007,0.0325 0.07728,-0.0189 0.524162,-0.47092 z m -6.4116792,-0.14668 c 0.192657,-0.16869 1.3985212,-1.36575 1.3985212,-1.38831 0,-0.0316 -0.2062272,-0.21573 -0.2416052,-0.21573 -0.02173,0 -0.267235,0.23154 -0.683029,0.64417 l -0.649114,0.64417 v 0.19262 c 0,0.17326 0.0082,0.24674 0.02738,0.24674 0.0036,0 0.07017,-0.0557 0.147847,-0.12366 z m 4.4944372,-0.12724 2.91e-4,-0.20813 -0.602984,-0.5899 c -0.689704,-0.67473 -0.701304,-0.68516 -0.746177,-0.67092 -0.05085,0.0161 -0.20748,0.1813 -0.20748,0.21878 0,0.0394 0.30822,0.3577 0.838593,0.86598 0.535936,0.5136 0.684778,0.64401 0.702731,0.61567 0.0081,-0.0129 0.01491,-0.11701 0.01505,-0.23148 z m -1.982297,-0.0861 c 0.01588,-0.0159 0.0136,-0.031 -0.01019,-0.0673 -0.04812,-0.0734 -0.319001,-0.34841 -0.343227,-0.34841 -0.02555,0 -0.248218,0.23586 -0.311514,0.32997 -0.07047,0.10478 -0.04585,0.11224 0.358755,0.10872 0.196273,-0.002 0.292119,-0.009 0.306174,-0.023 z m -4.0668232,-0.56537 c 0.0058,-0.0353 0.01069,-0.1392 0.01079,-0.23093 l 1.91e-4,-0.16679 -0.218101,2.9e-4 c -0.119955,1e-4 -0.228981,0.007 -0.24228,0.0156 -0.01904,0.0121 -0.0028,0.0396 0.07632,0.12978 0.115889,0.132 0.315249,0.31544 0.343333,0.31592 0.01053,2e-4 0.02391,-0.0285 0.02975,-0.0638 z m 7.6241432,-0.0706 c 0.196336,-0.18201 0.285507,-0.29144 0.253837,-0.31149 -0.01316,-0.008 -0.122066,-0.0153 -0.242021,-0.0154 l -0.218101,-2.9e-4 v 0.15157 c 0,0.19041 0.01598,0.31029 0.04137,0.31029 0.01079,0 0.085,-0.0606 0.164919,-0.1347 z m -6.0342322,-0.18936 0.157323,-0.153 -0.102636,-0.10418 c -0.140872,-0.143 -0.228457,-0.20291 -0.249055,-0.17035 -0.01722,0.0272 -0.02166,0.48102 -0.0053,0.54205 0.0057,0.0212 0.01752,0.0385 0.02633,0.0385 0.0088,0 0.08681,-0.0688 0.173341,-0.153 z m 4.4490872,0.10884 c 0.0057,-0.0149 0.01038,-0.1347 0.01038,-0.26627 0,-0.35263 -0.02696,-0.37618 -0.209808,-0.18328 -0.158733,0.16747 -0.160407,0.18176 -0.03619,0.30899 0.09129,0.0935 0.18576,0.16739 0.21423,0.16756 0.0061,3e-5 0.01567,-0.0121 0.02138,-0.027 z m -2.123236,-0.40473 c 0.283296,-0.25593 0.508554,-0.49054 0.508554,-0.52965 0,-0.0214 -0.06051,-0.097 -0.153954,-0.1923 l -0.153953,-0.15699 v -0.54701 c 0,-0.60903 0.0068,-0.66125 0.111615,-0.86053 0.133436,-0.25363 0.287998,-0.39671 0.598282,-0.55384 l 0.17106,-0.0866 0.99828,-0.0131 c 0.549055,-0.007 1.002518,-0.0174 1.007695,-0.0226 0.0085,-0.009 -0.02161,-0.13267 -0.0926,-0.38173 l -0.0256,-0.0898 H 10.936178 7.7661848 l -0.05258,0.19244 c -0.02892,0.10584 -0.05757,0.21361 -0.06367,0.23948 l -0.01109,0.047 0.100214,0.001 c 0.05512,7.2e-4 0.50819,0.007 1.006829,0.0138 l 0.906615,0.0124 0.178482,0.0891 c 0.3000652,0.14982 0.4470012,0.28498 0.5797212,0.53323 0.119618,0.22375 0.122754,0.24599 0.122754,0.87071 v 0.5566 l -0.156418,0.14606 c -0.130944,0.12227 -0.154498,0.15211 -0.144626,0.18322 0.01662,0.0524 0.665083,0.70667 0.70036,0.70667 0.01597,0 0.107774,-0.0711 0.204018,-0.15809 z m -1.6596262,-0.34499 c 0.110547,-0.10273 0.200995,-0.19502 0.200995,-0.2051 0,-0.0232 -0.412623,-0.43792 -0.435707,-0.43792 -0.0094,0 -0.115379,0.098 -0.235469,0.21786 l -0.218343,0.21786 0.217177,0.21766 c 0.183239,0.18365 0.221331,0.21444 0.243764,0.19703 0.01462,-0.0113 0.117036,-0.10467 0.227583,-0.20739 z m 3.2392262,0.14271 c 0.03658,-0.0288 0.176191,-0.15645 0.31026,-0.28356 l 0.24376,-0.2311 v -0.93363 -0.93364 l -0.431926,0.0107 c -0.237559,0.006 -0.476732,0.0183 -0.531495,0.0276 -0.239072,0.0406 -0.440728,0.20059 -0.55424,0.43962 -0.07536,0.15867 -0.09551,0.30866 -0.0469,0.349 0.02372,0.0197 0.140519,0.0281 0.566294,0.0407 l 0.536409,0.0159 v 0.16816 0.16816 h -0.564499 -0.564497 v 0.13428 c 0,0.12279 0.0046,0.14072 0.05328,0.20955 0.106247,0.15009 0.853747,0.87069 0.903187,0.87069 0.0076,0 0.04379,-0.0236 0.08037,-0.0525 z m -5.6006392,-0.0468 c 0.01296,-0.013 -0.114966,-0.15283 -0.440181,-0.48123 l -0.458458,-0.46296 h -0.17847 -0.17847 l 0.01222,0.10692 c 0.03665,0.32058 0.149018,0.56026 0.373773,0.79724 l 0.07067,0.0745 0.390318,-0.008 c 0.243256,-0.005 0.397204,-0.015 0.408594,-0.0264 z m 8.5248612,-0.0589 c 0.169782,-0.18784 0.293837,-0.43622 0.34036,-0.68148 0.04182,-0.22048 0.05415,-0.20376 -0.150189,-0.20376 H 15.6542 l -0.447788,0.45155 c -0.246284,0.24835 -0.447788,0.46352 -0.447788,0.47815 0,0.0315 0.0675,0.0371 0.507317,0.0421 l 0.293492,0.003 z m -8.4110792,-0.68082 0.0061,-0.20442 h -0.170744 c -0.186908,0 -0.277635,0.0124 -0.277635,0.0379 0,0.009 0.08857,0.10584 0.196828,0.215 0.156913,0.15823 0.201143,0.19416 0.218101,0.17721 0.01382,-0.0138 0.0234,-0.0929 0.02735,-0.22569 z m 7.6958782,0.012 c 0.08703,-0.09 0.15823,-0.17067 0.15823,-0.17932 0,-0.0248 -0.09255,-0.0371 -0.277942,-0.0371 h -0.17103 l 0.0072,0.20126 c 0.0039,0.1107 0.01313,0.21091 0.02042,0.22269 0.01912,0.031 0.07559,-0.0136 0.263151,-0.20751 z m -4.835045,0.0288 0.118078,-0.11399 -0.0018,-0.25807 c -0.0025,-0.35251 -0.01888,-0.56162 -0.04473,-0.57015 -0.02402,-0.008 -0.6548022,0.60604 -0.6548022,0.63735 0,0.0307 0.405488,0.41885 0.437604,0.41885 0.01517,0 0.08072,-0.0513 0.1456622,-0.11399 z m -1.2522952,-0.16889 0.147297,-0.14604 -0.14214,-0.13621 c -0.15123,-0.14493 -0.212407,-0.1707 -0.231963,-0.0977 -0.0174,0.065 -0.01189,0.45778 0.0069,0.49293 0.0097,0.0182 0.03005,0.0331 0.04514,0.0331 0.01509,0 0.09372,-0.0657 0.174735,-0.14604 z m -1.632943,-0.43772 c 0.0032,-0.004 0.01148,-0.23541 0.01834,-0.5153 l 0.01246,-0.50891 h -0.687877 -0.687876 l 0.01166,0.10692 c 0.03408,0.31244 0.126485,0.50804 0.379751,0.80379 l 0.116573,0.13612 0.415547,-0.008 c 0.228551,-0.004 0.418192,-0.011 0.421425,-0.0145 z m 2.41607,-0.34652 c 0.200678,-0.20117 0.364869,-0.37762 0.364869,-0.3921 0,-0.0382 -0.129053,-0.14275 -0.24918,-0.20189 -0.09327,-0.0459 -0.128776,-0.0527 -0.350672,-0.067 -0.135791,-0.009 -0.368132,-0.0161 -0.516313,-0.0163 l -0.269418,-3.8e-4 v 0.23545 0.23545 l 0.218101,0.21457 c 0.28519,0.28056 0.373605,0.35799 0.408794,0.35799 0.01592,0 0.193142,-0.1646 0.393819,-0.36577 z m 5.9739832,0.26058 c 0.243687,-0.26782 0.367888,-0.52563 0.404625,-0.83991 l 0.0115,-0.0984 h -0.686208 -0.686209 l 0.0021,0.38917 c 0.0012,0.21403 0.0069,0.44273 0.01283,0.5082 0.0097,0.10832 0.01456,0.12011 0.05347,0.13087 0.02352,0.007 0.211377,0.0126 0.417458,0.0135 l 0.374692,0.002 0.09572,-0.1052 z m -5.274606,-2.21729 c 0.02715,-0.0152 -7.67e-4,-0.0389 -0.198501,-0.16828 -0.1265492,-0.0828 -0.4918122,-0.31098 -0.8116932,-0.50701 l -0.581603,-0.35643 -0.124245,0.13329 c -0.2254,0.24181 -0.385322,0.43875 -0.503392,0.61991 -0.06406,0.0983 -0.116471,0.19165 -0.116471,0.20745 0,0.044 0.04191,0.0694 0.140804,0.0852 0.131031,0.0209 2.1557692,0.008 2.1951012,-0.0141 z m 3.340852,0.019 c 0.299984,-0.013 0.287604,7.4e-4 0.173516,-0.19403 -0.13835,-0.23635 -0.530072,-0.71739 -0.672882,-0.82631 l -0.06016,-0.0459 -0.510179,0.31871 c -0.849665,0.53078 -1.11214,0.70765 -1.078952,0.72705 0.0405,0.0237 1.707747,0.0396 2.148654,0.0205 z m -2.911824,-0.34367 c 0.0068,-0.0353 0.01295,-0.38745 0.01361,-0.7826 l 0.0012,-0.71845 -0.152951,0.005 c -0.190201,0.006 -0.477828,0.0681 -0.7793252,0.16921 -0.334475,0.11221 -0.735556,0.32512 -0.735556,0.39046 0,0.0511 1.5325292,0.99741 1.6200152,1.00033 0.01133,3.7e-4 0.0262,-0.0282 0.03303,-0.0635 z m 0.604195,-0.0502 c 0.4681,-0.27879 1.326193,-0.83453 1.369932,-0.88723 0.03186,-0.0384 -0.0099,-0.0746 -0.201922,-0.17479 -0.433405,-0.22624 -0.846814,-0.35085 -1.294057,-0.39007 l -0.135345,-0.0119 0.01194,0.75514 c 0.0066,0.41533 0.01634,0.7666 0.02171,0.7806 0.01634,0.0426 0.05754,0.0296 0.227739,-0.0718 z"
       id="path853-8"
       inkscape:connector-curvature="0"
       transform="matrix(1.0449892,0,0,1.05342,-0.73491871,-16.145341)" />
  </g>
</svg>
